<?xml version="1.0" encoding="UTF-8" standalone="no"?>
<svg
   xmlns:dc="http://purl.org/dc/elements/1.1/"
   xmlns:cc="http://creativecommons.org/ns#"
   xmlns:rdf="http://www.w3.org/1999/02/22-rdf-syntax-ns#"
   xmlns:svg="http://www.w3.org/2000/svg"
   xmlns="http://www.w3.org/2000/svg"
   viewBox="0 0 220.60001 598.56"
   height="598.56"
   width="220.60001"
   xml:space="preserve"
   id="svg2"
   version="1.1"><metadata
     id="metadata8"><rdf:RDF><cc:Work
         rdf:about=""><dc:format>image/svg+xml</dc:format><dc:type
           rdf:resource="http://purl.org/dc/dcmitype/StillImage" /></cc:Work></rdf:RDF></metadata><defs
     id="defs6"><clipPath
       id="clipPath20"
       clipPathUnits="userSpaceOnUse"><path
         id="path18"
         d="M 0,0 H 1654.52 V 4489 H 0 Z" /></clipPath></defs><g
     transform="matrix(1.3333333,0,0,-1.3333333,0,598.56)"
     id="g10"><g
       transform="scale(0.1)"
       id="g12"><g
         id="g14"><g
           clip-path="url(#clipPath20)"
           id="g16"><path
             id="path22"
             style="fill:#231f20;fill-opacity:1;fill-rule:nonzero;stroke:none"
             d="m 504.988,2995.61 c -20.601,120.5 -37.343,218.47 -54.093,316.45 -63.825,-61.84 -106.442,-123.46 -151.61,-183.13 -26.894,-35.53 -16.75,-60.39 19.688,-73.99 54.316,-20.27 110.488,-35.57 186.015,-59.33 z M 916.547,902.129 c 71.023,336.091 27.406,659.861 -46.024,983.831 -36.543,-87.47 -74.121,-174.44 -89.386,-265.17 -27.867,-165.55 -89.16,-333.56 43.191,-492.02 48.313,-57.84 60.746,-145.641 92.219,-226.641 z M 1472.44,1949.18 c -40.18,-4.81 -64.43,-7.71 -88.67,-10.61 4.3,27.69 0.42,60.69 14.34,82.16 54.68,84.4 63.83,161.96 37.95,266.67 -49.15,198.88 -66.68,405.73 -94.63,609.64 -11.1,80.88 -14.98,162.74 -22.14,244.15 -8.11,1.34 -16.21,2.68 -24.32,4.03 -12.33,-52.06 -37.86,-104.92 -34.75,-156.03 15.38,-253.53 38.07,-506.61 58.78,-759.79 4.11,-50.2 11.32,-100.13 15.84,-150.3 1.18,-13.06 2.44,-34.22 -4.56,-38.64 -52.85,-33.34 -42.27,-86.73 -46.93,-135.44 -31.41,-328.25 -55.94,-657.36 -96.84,-984.418 C 1163.87,739.621 1115.94,561.57 1073.75,383.539 1067.94,359 1029.43,342.23 1009.21,324.609 1004.35,248.691 1002.79,164.371 991.074,81.4805 987.902,59 957.082,28.9609 933.734,23.0703 874.672,8.17969 812.73,1.44141 751.746,0 c -13.605,-0.308594 -39.883,34.8281 -39.547,53.2813 0.641,35.3593 16.176,70.4487 27.641,113.5897 -36.512,-1.75 -69.813,-2.48 -102.957,-5.172 -38.473,-3.129 -53.246,15.512 -40.117,49.219 11.269,28.922 25.554,60.512 47.8,80.641 76.719,69.461 137.164,147.043 153.551,257.101 -67.894,-20.031 -90.539,23.309 -103.332,78.488 -45.828,197.672 -131.914,377.272 -222.742,558.362 -50.094,99.86 -44.316,231.79 -48.328,349.77 -5.914,173.87 3,348.22 2.492,522.35 -0.062,21.49 -13.566,53.11 -30.539,62.5 -53.094,29.34 -66.941,70.42 -57.121,125.9 24.723,139.64 45.785,280.03 74.719,418.78 10.586,50.79 10.578,82.11 -41.426,109.68 -101.043,53.57 -197.567,115.59 -296.8166,172.61 -74.566369,42.84 -93.7304,71.01 -56.6757,150.54 64.4023,138.21 138.2303,272.3 213.3083,405.17 44.789,79.28 96.828,154.93 151.141,228.1 19.973,26.91 53.148,50.53 85.066,60.71 67.293,21.47 139.66,27.5 206.289,50.46 55.016,18.96 108.203,48.51 155.043,83.06 16.895,12.46 22.41,55.23 16.848,80.61 -20.855,95.14 -42.047,188.18 25.414,274.5 6.758,8.64 13.91,18.23 16.738,28.51 41.59,151.32 171.325,217.16 316.385,159.95 117.43,-46.3 171.34,-193.69 115.77,-308.32 -9.69,-20.01 -1,-48.14 -6.9,-70.95 -10.01,-38.76 -19.16,-79.63 -39.06,-113.51 -28.76,-48.98 -66.8,-92.51 -102.86,-141.03 93.03,-46.7 176.95,-92.77 264.24,-131.13 50.17,-22.05 77.49,-56.2 84.81,-106.81 18.29,-126.64 38.24,-253.23 50.37,-380.52 28.01,-294.08 44.3,-589.5 81.65,-882.3 11.79,-92.3 -34.1,-159.09 -46.75,-238.83 -7.8,-49.2 -31.48,-95.66 -42.49,-144.61 -14.29,-63.47 -55.01,-92.77 -115.2,-99.44 -14.79,-1.63 -30.65,6.51 -46.02,10.17 8.48,15.87 15.18,33.09 25.96,47.19 9.91,12.95 24.22,22.54 44.34,40.56" /></g></g></g></g></svg>