<?xml version="1.0" encoding="UTF-8" standalone="no"?>
<svg
   xmlns:dc="http://purl.org/dc/elements/1.1/"
   xmlns:cc="http://creativecommons.org/ns#"
   xmlns:rdf="http://www.w3.org/1999/02/22-rdf-syntax-ns#"
   xmlns:svg="http://www.w3.org/2000/svg"
   xmlns="http://www.w3.org/2000/svg"
   viewBox="0 0 386.64001 593.20001"
   height="593.20001"
   width="386.64001"
   xml:space="preserve"
   id="svg2"
   version="1.1"><metadata
     id="metadata8"><rdf:RDF><cc:Work
         rdf:about=""><dc:format>image/svg+xml</dc:format><dc:type
           rdf:resource="http://purl.org/dc/dcmitype/StillImage" /></cc:Work></rdf:RDF></metadata><defs
     id="defs6"><clipPath
       id="clipPath20"
       clipPathUnits="userSpaceOnUse"><path
         id="path18"
         d="M 0,0 H 2899.77 V 4449 H 0 Z" /></clipPath></defs><g
     transform="matrix(1.3333333,0,0,-1.3333333,0,593.2)"
     id="g10"><g
       transform="scale(0.1)"
       id="g12"><g
         id="g14"><g
           clip-path="url(#clipPath20)"
           id="g16"><path
             id="path22"
             style="fill:#231f20;fill-opacity:1;fill-rule:nonzero;stroke:none"
             d="m 2688.25,2404.42 c 11.49,1.65 22.97,3.3 34.46,4.96 -22.24,214.1 -44.49,428.21 -66.73,642.32 -22.93,-2.99 -45.86,-5.97 -68.79,-8.95 33.69,-212.78 67.37,-425.55 101.06,-638.33 z m -866.7,805.2 C 1664.83,3035 1680.29,2857 1749.14,2642.05 c 108.07,189.94 98.64,366.72 72.41,567.57 z m 225.29,614.86 c -29.48,190.08 -53.87,347.43 -80.7,520.41 18.78,10.77 55.12,34.28 93.71,53.18 112.44,55.08 230.89,81.82 335.32,-5.32 105.37,-87.94 100.46,-207.63 59.06,-328.45 -75.07,-219.14 -75.99,-221.97 146.5,-309.45 130.78,-51.42 220.72,-128 229.52,-278.34 22.62,-386.14 51.34,-771.97 68.53,-1158.32 5.17,-116.03 -10.49,-235.28 -34.26,-349.37 -13.28,-63.76 -62.81,-119.98 -126.66,-164.36 16.65,57.46 33.31,114.92 49.96,172.38 -9.04,2.93 -18.09,5.87 -27.14,8.81 -9.61,-29.33 -19.21,-58.66 -28.81,-87.99 -11.8,1.26 -23.6,2.52 -35.4,3.78 8.05,98.1 16.09,196.19 24.13,294.28 -8.09,6.35 -16.19,12.69 -24.27,19.04 -11.76,-21.53 -29.66,-41.8 -34.33,-64.77 -49.46,-243.4 -108.66,-485.66 -141.22,-731.41 -29.05,-219.41 -17.18,-444.131 -43.94,-664.002 -19.25,-158.117 -88.55,-310.59 -103.46,-468.598 -7.34,-77.8 57.98,-162.46 90.44,-243.9995 -198.81,-83.2305 -265.54,-48.17191 -260.29,154.4805 7.68,297.219 32.89,593.988 40.6,891.199 7.27,279.92 1.56,560.16 1.56,840.25 -17.29,1.51 -34.59,3.01 -51.88,4.53 -28.52,-232.67 -62.47,-464.85 -83.19,-698.2 -9.96,-112.06 1.96,-226.55 10.16,-339.49 4.21,-57.91 21.63,-114.918 34.16,-172.102 2.02,-9.238 15.4,-18.41 13.92,-25.636 -34.48,-167.403 -65.55,-335.852 -111.14,-500.262 -6.59,-23.77 -91.69,-48.059 -126.41,-34.93 -29.46,11.141 -56.56,77.442 -53.36,116.782 9.08,111.578 58.08,223.867 48.93,332.289 -40.39,478.359 -91.46,955.989 -148.85,1432.649 -12.79,106.18 -53.29,214.7 -104.48,309.48 -142.24,263.51 -236.47,529.46 -122.77,828.89 3.51,9.23 4.24,19.49 7.34,28.91 87.49,265.91 120.67,573.02 488.72,613.66" /><path
             id="path24"
             style="fill:#231f20;fill-opacity:1;fill-rule:nonzero;stroke:none"
             d="m 312.574,3042.75 c -22.926,2.98 -45.855,5.96 -68.785,8.95 -22.242,-214.11 -44.492,-428.22 -66.738,-642.32 11.488,-1.66 22.976,-3.31 34.469,-4.96 33.683,212.78 67.367,425.55 101.054,638.33 z m 838.056,-400.7 c 68.84,214.95 84.3,392.95 -72.42,567.57 -26.22,-200.85 -35.65,-377.63 72.42,-567.57 z m 191.02,568.77 c 3.1,-9.42 3.82,-19.68 7.33,-28.91 113.72,-299.43 19.48,-565.38 -122.77,-828.89 -51.18,-94.78 -91.68,-203.3 -104.47,-309.48 -57.39,-476.66 -108.47,-954.29 -148.849,-1432.649 -9.153,-108.422 39.839,-220.711 48.929,-332.289 3.2,-39.34 -23.894,-105.641 -53.363,-116.782 -34.719,-13.129 -119.824,11.16 -126.414,34.93 -45.59,164.41 -76.652,332.859 -111.129,500.262 -1.488,7.226 11.883,16.398 13.91,25.636 12.531,57.184 29.949,114.192 34.16,172.102 8.207,112.94 20.114,227.43 10.164,339.49 -20.714,233.35 -54.671,465.53 -83.191,698.2 -17.297,-1.52 -34.59,-3.02 -51.887,-4.53 0,-280.09 -5.707,-560.33 1.567,-840.25 7.715,-297.211 32.918,-593.98 40.601,-891.199 C 701.484,-6.19141 634.758,-41.25 435.941,41.9805 468.402,123.52 533.727,208.18 526.383,285.98 511.469,443.988 442.184,596.461 422.934,754.578 396.168,974.449 408.043,1199.17 378.98,1418.58 c -32.55,245.75 -91.753,488.01 -141.214,731.41 -4.668,22.97 -22.571,43.24 -34.328,64.77 -8.09,-6.35 -16.18,-12.69 -24.274,-19.04 8.043,-98.09 16.078,-196.18 24.121,-294.28 -11.797,-1.26 -23.594,-2.52 -35.39,-3.78 -9.606,29.33 -19.207,58.66 -28.813,87.99 -9.047,-2.94 -18.09,-5.88 -27.141,-8.81 16.657,-57.46 33.309,-114.92 49.961,-172.38 C 98.0508,1848.84 48.5313,1905.06 35.2461,1968.82 11.4805,2082.91 -4.17578,2202.16 0.988281,2318.19 18.168,2704.54 46.8945,3090.37 69.5156,3476.51 c 8.8086,150.34 98.7304,226.92 229.5114,278.34 222.5,87.48 221.578,90.31 146.504,309.45 -41.39,120.82 -46.308,240.51 59.071,328.45 104.418,87.14 222.875,60.4 335.304,5.32 38.594,-18.9 74.934,-42.41 93.715,-53.18 -26.82,-172.98 -51.219,-330.33 -80.691,-520.41 368.05,-40.64 401.23,-347.75 488.72,-613.66" /></g></g></g></g></svg>