<?xml version="1.0" encoding="UTF-8" standalone="no"?>
<svg
   xmlns:dc="http://purl.org/dc/elements/1.1/"
   xmlns:cc="http://creativecommons.org/ns#"
   xmlns:rdf="http://www.w3.org/1999/02/22-rdf-syntax-ns#"
   xmlns:svg="http://www.w3.org/2000/svg"
   xmlns="http://www.w3.org/2000/svg"
   viewBox="0 0 177.69333 607.5733"
   height="607.5733"
   width="177.69333"
   xml:space="preserve"
   id="svg2"
   version="1.1"><metadata
     id="metadata8"><rdf:RDF><cc:Work
         rdf:about=""><dc:format>image/svg+xml</dc:format><dc:type
           rdf:resource="http://purl.org/dc/dcmitype/StillImage" /></cc:Work></rdf:RDF></metadata><defs
     id="defs6"><clipPath
       id="clipPath20"
       clipPathUnits="userSpaceOnUse"><path
         id="path18"
         d="M 0,4556.8 V 0 h 1332.65 v 4556.8 z" /></clipPath></defs><g
     transform="matrix(1.3333333,0,0,-1.3333333,0,607.57333)"
     id="g10"><g
       transform="scale(0.1)"
       id="g12"><g
         id="g14"><g
           clip-path="url(#clipPath20)"
           id="g16"><path
             id="path22"
             style="fill:#231f20;fill-opacity:1;fill-rule:nonzero;stroke:none"
             d="m 1187.54,2086.02 c 42.47,52.08 37.36,91.62 -10.34,115.58 3.33,-37.3 6.37,-71.23 10.34,-115.58 z m -950.169,93.43 c -33.398,-34.98 -41.465,-83.01 -21.879,-127.62 35.102,38.21 41.278,79.63 21.879,127.62 z M 660.426,216.609 c 32.129,81.629 63.664,153.34 86.719,227.692 4.414,14.219 -21.532,42.578 -39.497,56.828 -7.703,6.109 -35.414,-2.488 -45.761,-12.758 -14.102,-13.973 -24.949,-34.973 -29.039,-54.652 -14.696,-70.707 -5.996,-139.649 27.578,-217.11 z M 1013.45,2768.87 c -28.501,158.33 -56.938,316.26 -85.122,472.79 -20.781,-23.73 -49.562,-49.18 -68.945,-80.44 -30.82,-49.71 -46.309,-107.28 -12.207,-159.84 52.383,-80.72 111.719,-156.92 166.274,-232.51 z m -700.161,-545.6 c 29.133,68.61 59.891,140.64 90.051,212.92 2.469,5.93 2.316,13.91 0.863,20.37 -26.242,116.5 -52.871,232.91 -79.762,350.84 -15.863,-116.21 -33.378,-231.82 -46.457,-347.94 -3.996,-35.51 1.786,-72.76 7.422,-108.54 6.617,-41.99 17.957,-83.25 27.883,-127.65 z M 766.141,500.91 c 46.621,55.621 71.336,114.75 78.574,177.809 18.965,165.281 32.812,331.151 48.691,496.781 7.473,77.88 -20.398,149.53 -36.687,223.72 -37.27,169.74 -59.094,341.88 -59.496,516.08 -0.067,29.04 -9.305,39.32 -39.539,45.67 -63.668,13.37 -110.672,1.74 -142.477,-59.47 -12.746,-24.54 -35.523,-43.68 -52.098,-66.47 -76.246,-104.77 -152.277,-209.71 -227.601,-315.15 -28.68,-40.14 -26.418,-79.91 1.398,-121.6 50.051,-75 77.778,-158.21 91.543,-247.83 14.528,-94.59 32.793,-189.052 57.364,-281.45 14.25,-53.57 42.386,-103.879 68.199,-153.621 6.562,-12.641 27.363,-22.828 42.894,-24.988 51.395,-7.161 89.164,-29.082 111.067,-78.18 15.968,-35.82 36.222,-69.723 58.168,-111.301 z M 434.18,286 c -34.567,152.711 -59.164,302.281 -103.996,445.5 -31.664,101.16 -93.375,192.59 -136.743,290.54 -30.711,69.36 -50.894,143.32 -80.015,213.46 -25.8596,62.29 -54.2033,124.06 -87.6291,182.53 -33.44534,58.52 -33.56643,111.9 -5.0196,172.34 46.3633,98.14 88.2697,198.48 128.9177,299.16 7.621,18.89 4.2,44.48 -0.328,65.65 -24.297,113.64 -20.004,222.93 13.774,336.63 20.304,68.33 7.941,147.54 4.324,221.57 -8.262,168.98 -18.793,337.89 -31.348,506.6 -4.383,58.83 -13.633,117.91 -27.226,175.32 -34.4457,145.47 -44.9965,292.55 -40.016,441.38 1.6289,48.66 25.9336,84.23 58.695,117.79 46.102,47.22 96.328,92.76 131.504,147.54 26.766,41.69 42.961,95.98 46.27,145.84 11.273,169.61 71.769,317.43 177.129,448.81 43.375,54.07 97.437,64.44 165.699,58.75 94.355,-7.86 146.269,-60.24 203.125,-129.28 131.004,-159.08 200.553,-352.72 312.573,-521.72 2,-3 2.07,-7.28 -4,-17 -10.78,15.73 -21.57,31.45 -32.35,47.17 -2.61,-1.83 -5.21,-3.67 -7.82,-5.51 2.73,-13.35 5.25,-26.75 8.23,-40.04 24.01,-107.21 36.76,-216.44 75.18,-321.13 25.04,-68.21 19.41,-139.01 -52.49,-187.23 -10.43,-6.99 -12.34,-29.26 -14.92,-44.99 -30.31,-185 17.28,-360.09 61.57,-537.41 32.37,-129.53 43.44,-264.23 68.53,-395.76 10.47,-54.9 27.91,-109.7 50.77,-160.7 26.24,-58.51 16.68,-115.07 -2.44,-168.68 -7.9,-22.17 -45,-33.27 -67.37,-51.2 -13.12,-10.51 -23.39,-24.57 -29.47,-42.37 -55.93,-2.09 -64.96,-38.94 -69.73,-87.94 -7.65,-78.53 -21.06,-156.64 -35.29,-234.33 -20.53,-112.12 -4.64,-222.76 12.6,-332.72 28.35,-180.85 10.4,-354.14 -67.4,-520.879 -23.83,-51.089 -40.48,-105.531 -64.544,-156.48 -41.238,-87.289 -16.231,-170.32 9.624,-254.371 4.09,-13.309 7.56,-30.758 2.39,-42.289 -32.159,-71.871 -38.182,-146.711 -32.471,-223.852 1.14,-15.469 -3.36,-31.3474 -5.254,-47.0506 -5.598,0.1211 -11.184,0.2422 -16.77,0.3633 -9.363,48.1873 -18.726,96.3673 -28.086,144.5473 -3.086,0.621 -6.171,1.222 -9.257,1.839 -5.348,-13.179 -12.34,-25.957 -15.75,-39.628 C 888.141,149.82 876.813,112.852 873.035,75.2109 867.996,24.9609 841.48,0.621094 794.051,0.351563 730.809,-0.0390625 666.723,-1.71094 604.703,8.03906 582.035,11.6016 564.25,46.2305 538.633,72.4297 529.324,67.8594 510.969,58.6094 492.422,49.7813 460.305,34.5 426.176,32.2109 402.766,60.2695 379.367,88.3086 366.043,122.5 380.164,162.512 c 6.293,17.859 7.977,40.047 3.652,58.359 -9.253,39.199 12.196,54.391 50.364,65.129" /></g></g></g></g></svg>