<?xml version="1.0" encoding="UTF-8" standalone="no"?>
<svg
   xmlns:dc="http://purl.org/dc/elements/1.1/"
   xmlns:cc="http://creativecommons.org/ns#"
   xmlns:rdf="http://www.w3.org/1999/02/22-rdf-syntax-ns#"
   xmlns:svg="http://www.w3.org/2000/svg"
   xmlns="http://www.w3.org/2000/svg"
   viewBox="0 0 191.48 591.82666"
   height="591.82666"
   width="191.48"
   xml:space="preserve"
   id="svg2"
   version="1.1"><metadata
     id="metadata8"><rdf:RDF><cc:Work
         rdf:about=""><dc:format>image/svg+xml</dc:format><dc:type
           rdf:resource="http://purl.org/dc/dcmitype/StillImage" /></cc:Work></rdf:RDF></metadata><defs
     id="defs6"><clipPath
       id="clipPath20"
       clipPathUnits="userSpaceOnUse"><path
         id="path18"
         d="M 0,0 H 1436 V 4438.65 H 0 Z" /></clipPath></defs><g
     transform="matrix(1.3333333,0,0,-1.3333333,0,591.82667)"
     id="g10"><g
       transform="scale(0.1)"
       id="g12"><g
         id="g14"><g
           clip-path="url(#clipPath20)"
           id="g16"><path
             id="path22"
             style="fill:#231f20;fill-opacity:1;fill-rule:nonzero;stroke:none"
             d="m 558.875,4351.98 c -25.922,-38.5 -28.805,-79.8 -36.902,-121.34 -1.836,-9.4 -0.285,-19.56 0.332,-29.34 1.023,-16.16 0.84,-32.66 4.218,-48.35 8.36,-38.84 17.329,-77.63 28.403,-115.75 4.39,-15.12 14.863,-28.52 22.793,-42.57 29.629,-52.53 50.004,-105.86 19.57,-165.84 -2.848,-5.61 2.238,-15.25 3.641,-23.02 -5.782,0.27 -14.797,3.09 -16.86,0.45 -28.539,-36.45 -71.332,-44.36 -111.683,-56.92 -25.625,-7.98 -51.399,-15.81 -77.571,-21.61 -24.867,-5.51 -50.371,-8.14 -75.546,-12.32 -59.129,-9.82 -114.418,-27.6 -155.024,-75.52 -23.062,-27.22 -33.906,-60.37 -40.297,-94.05 -7.785,-41.02 -15.801,-83.12 -14.605,-124.49 2.32,-80.19 -22.1252,-154.02 -41.4456,-229.81 -2.7382,-10.74 -4.9453,-21.61 -6.8711,-32.56 -12.9179,-59.7 -25.5742,-154.71 -19.2617,-285.14 -0.5508,-1.38 -1.4609,-3.82 -1.2343,-6.17 3.8945,-40.83 -6.379,-78.61 -20.25,-116.81 C -1.90234,2689.73 -1.1875,2625.32 1.07813,2561.35 2.62891,2517.52 5.69531,2473.73 8.57422,2429.96 12.5117,2370 18.6641,2310.12 20.3438,2250.1 c 0.7929,-28.23 -11.36724,-57 -9.5157,-84.99 7.5196,-113.68 53.6524,-208.62 145.7379,-278.56 8.711,-6.62 19.692,-11.42 30.356,-13.89 6.832,-1.58 18.453,0.25 21.699,4.9 3.953,5.66 4.133,17.13 1.082,23.89 -7.43,16.48 -17.644,31.69 -26.773,47.4 -25.028,43.01 -40.617,88.7 -39.227,139.16 0.121,4.38 0.367,8.76 0.836,13.12 0.109,1 1.367,1.88 2.836,3.75 28.105,-19.49 40.648,-48.98 53.191,-78.92 3.52,-8.4 10.664,-16.67 18.329,-21.61 9.003,-5.8 17.113,-1.06 14.332,10.36 -12.555,51.52 -24.864,103.16 -39.872,153.97 -4.39,14.87 -15.027,29.97 -26.925,40.14 -28.977,24.75 -29.149,54.29 -21.25,87.15 18.992,79.02 38.652,157.91 55.984,237.31 10.262,47 16.637,94.85 24.691,142.33 1.504,8.86 0.711,16.86 -2.839,23.84 0.632,7.04 1.242,14.46 1.781,22.59 2.215,33.14 7.551,69.85 13.125,101.8 5.523,16.06 8.988,32.83 13.082,49.01 26.637,105.42 49.078,211.91 73.215,317.97 0.496,2.18 1.679,4.19 3.472,8.55 2.844,-4.11 5.192,-6.2 5.93,-8.77 18.395,-63.62 40.817,-126.46 53.734,-191.19 13.985,-70.07 12.883,-142.05 8.36,-213.64 -1.977,-31.26 0.859,-62.87 -1.957,-94.01 -2.328,-25.73 -9.004,-51.18 -15.078,-76.43 -13.133,-54.59 -32.68,-108.29 -39.555,-163.59 -12.887,-103.64 -19.777,-208.08 -27.02,-312.34 -7.078,-102.02 -6.906,-204.07 2.29,-306.18 9.144,-101.62 19.793,-203.03 42.695,-302.49 14.582,-63.36 36.234,-125.1 50.57,-188.51 8.582,-37.95 8.778,-77.76 13.653,-116.63 1.082,-8.66 5.968,-16.84 9.05,-25.16 -8.965,7.5 -12.058,1.79 -13.172,-6.4 -7.293,-53.71 -15.433,-107.63 -18.742,-161.63 -11.297,-52.279 13.86,-242.111 39.254,-324.978 8.606,-46.961 17.887,-93.813 27.219,-140.641 11.203,-80.492 17.726,-157.781 17.867,-159.5 1.981,-28.84 3.957,-57.679 5.613,-86.539 0.664,-11.613 -1.129,-23.883 -4.367,-35.101 -11.742,-40.762 -23.312,-81.661 -37.469,-121.61 -8.722,-24.601 -22.277,-47.449 -33.183,-71.3005 -14.281,-31.25 -9.156,-47.8399 23.64,-59.961 C 466.145,22 496.77,14.3906 527.355,8.76172 556.16,3.44922 585.715,1.21875 615.043,0.0703125 651.363,-1.37109 668.223,19.9883 660.398,55.3906 c -8.222,37.2383 -20.41,73.9104 -25.121,111.5584 -12.648,101.082 -25.472,202.192 -3.632,304.231 12.398,57.91 21.96,116.422 31.878,174.871 31.426,98.461 38.743,205.281 36.946,294.879 2.133,3.582 0.176,9.308 -0.305,13.031 -2.621,86.809 -13.402,155.369 -17.973,181.089 -6.937,52.02 -21.945,103.38 -10.972,156.71 12.797,62.23 20.367,125.38 13.801,188.47 -7.391,70.97 6.253,139.49 14.656,208.9 5.336,44.04 9.769,88.33 11.5,132.63 3.91,100.15 5.914,200.39 8.594,300.58 0.097,3.67 -0.821,7.36 -1.325,10.98 11.703,-2.64 23.305,-5.79 35.016,-8.17 v 2313.49 c -34.918,0.16 -69.609,-5.02 -103.117,-16.84 -34.696,-12.23 -67.453,-34.16 -91.469,-69.82" /><path
             id="path24"
             style="fill:#231f20;fill-opacity:1;fill-rule:nonzero;stroke:none"
             d="m 1401.17,2860.3 c -10.21,36.54 -12.2,75.77 -14.76,113.99 -5.9,87.81 -10.59,175.72 -14.24,263.66 -1.43,34.49 2.67,69.19 1.72,103.73 -2.3,83.94 -17.63,165.6 -46.71,244.56 -20.88,56.7 -59.83,89.17 -121.05,95.51 -31.89,3.31 -63.33,10.8 -94.48,16.32 18.32,17.27 34.88,32.81 51.31,48.46 1.86,1.77 3.25,4.08 4.61,6.3 17.25,28.17 14.78,32.85 -17.06,34.33 -27.64,1.29 -42.97,19.8 -49.45,43.15 -7.97,28.66 -10.71,58.76 -16.56,88.06 -0.95,4.82 -6.3,8.76 -9.55,13.16 3.15,8.01 8.6,15.89 9.23,24.15 5.53,70.81 13.46,141.65 14.35,212.56 1.49,118.95 -63.59,248.94 -200.03,266.53 -21.242,2.73 -43.027,3.97 -64.844,3.87 V 2230.3 c 0,-37.59 0,-77.44 0,-113.53 2.996,1.24 9.766,0.96 19.004,-0.35 5.438,-93.45 10.801,-186.91 14.227,-280.45 2.949,-80.75 -0.633,-161.71 1.367,-242.53 1.367,-55.24 4.348,-110.79 12.09,-165.43 7.265,-51.25 5.324,-101.4 -2.957,-151.66 -7.129,-43.3 -12.844,-86.67 -16.621,-130.12 -0.02,-0.02 -0.071,-0.06 -0.071,-0.06 0,0 -33.359,-144.5 26.621,-485.299 0.762,-0.34 1.457,-0.652 2.207,-0.973 2.473,-22.019 4.883,-44.046 7.09,-66.097 10.793,-107.653 19.875,-214.91 4.219,-323.539 C 891.059,202.449 882.641,135.211 861.078,69.7188 848.41,31.2813 868.918,6.25 909.32,7.92188 c 32.313,1.33984 64.883,5.37892 96.52,12.09762 33.34,7.0821 44.91,27.9219 37.77,61.1211 -17.08,79.3474 -26.49,159.9804 -23.78,240.6214 2.59,77.238 14.1,154.25 23.23,231.187 2.04,17.121 4.59,34.18 7.25,51.231 14.99,72.75 48.84,252.558 54.02,414.47 1.04,10.96 2.12,21.91 3.16,32.87 0.48,5.01 1.81,12.22 -2.53,14.09 -0.03,5.43 -0.08,10.83 -0.19,16.17 1.5,3.35 2.51,6.67 2.4,9.97 -2.38,72.17 -4.72,144.42 -10.23,216.4 -5.39,70.32 -4.13,140.09 0.78,210.46 5.8,83.15 23.9,163.66 43.28,243.91 33.65,99.24 109.36,307.92 111.66,540.21 2.18,219.81 -63.09,338.12 -89.74,377.18 -9.54,25.16 -19.32,50.2 -29.73,74.98 -32.16,76.53 -31.82,156.38 -27.07,236.74 3.41,57.88 8.47,115.67 13.5,173.44 0.94,10.75 3.52,22.07 8.32,31.63 18.5,36.83 38.2,73.05 56.62,107.94 3.55,-21.94 8.39,-48.27 11.98,-74.76 17.12,-126.46 34.03,-252.95 50.72,-379.47 6.72,-50.94 10.68,-102.34 19.47,-152.91 10.24,-58.9 25.41,-116.93 36.55,-175.69 12.48,-65.8 23.29,-131.93 33.85,-198.07 3.81,-23.83 -1.35,-44.72 -18.13,-65.09 -27.64,-33.53 -35.51,-76.19 -43.79,-117.91 -5.03,-25.39 -10.4,-50.7 -16.12,-78.48 17.51,-3.23 21.81,8.37 26.16,19.63 10.98,28.48 19.86,58.11 49.59,78.82 -2.4,-23.05 -1.17,-47.25 -7.99,-68.91 -11.46,-36.39 -27.99,-71.2 -42.46,-106.64 -3.69,-9.04 -9.14,-17.66 -11.04,-27.04 -1.21,-5.95 1.27,-13.87 4.85,-19.02 1.52,-2.21 11.09,-1.35 15.12,1.15 11.52,7.15 23.3,14.63 32.77,24.17 47.93,48.29 79.3,106.36 96.16,171.93 4.81,18.74 6.1,38.72 6.53,58.18 3.05,138.3 7.64,276.62 7.26,414.92 -0.24,84.65 -11.85,168.51 -34.87,250.85" /></g></g></g></g></svg>