<?xml version="1.0" encoding="iso-8859-1"?>
<!-- Generator: Adobe Illustrator 19.0.0, SVG Export Plug-In . SVG Version: 6.00 Build 0)  -->
<svg version="1.1" id="Capa_1" xmlns="http://www.w3.org/2000/svg" xmlns:xlink="http://www.w3.org/1999/xlink" x="0px" y="0px"
	 viewBox="0 0 512 512" style="enable-background:new 0 0 512 512;" xml:space="preserve">
<g>
	<g>
		<path d="M467,0H45C20.187,0,0,20.187,0,45v422c0,24.813,20.187,45,45,45h422c24.813,0,45-20.187,45-45V45
			C512,20.187,491.813,0,467,0z M30,45c0-8.271,6.729-15,15-15h317v90H30V45z M482,467c0,8.271-6.729,15-15,15H45
			c-8.271,0-15-6.729-15-15V150h452V467z M482,120h-90V30h75c8.271,0,15,6.729,15,15V120z"/>
	</g>
</g>
<g>
	<g>
		<path d="M105,60H75c-8.284,0-15,6.716-15,15s6.716,15,15,15h30c8.284,0,15-6.716,15-15S113.284,60,105,60z"/>
	</g>
</g>
<g>
	<g>
		<path d="M196,60h-30c-8.284,0-15,6.716-15,15s6.716,15,15,15h30c8.284,0,15-6.716,15-15S204.284,60,196,60z"/>
	</g>
</g>
<g>
	<g>
		<path d="M286,60h-30c-8.284,0-15,6.716-15,15s6.716,15,15,15h30c8.284,0,15-6.716,15-15S294.284,60,286,60z"/>
	</g>
</g>
<g>
	<g>
		<path d="M437,422h-15V226c0-8.284-6.716-15-15-15h-60c-8.284,0-15,6.716-15,15v196h-31V286c0-8.284-6.716-15-15-15h-60
			c-8.284,0-15,6.716-15,15v136h-30v-76c0-8.284-6.716-15-15-15h-61c-8.284,0-15,6.716-15,15v76H75c-8.284,0-15,6.716-15,15
			s6.716,15,15,15c120.763,0,241.223,0,362,0c8.284,0,15-6.716,15-15S445.284,422,437,422z M151,422h-31v-61h31V422z M271,422h-30
			V301h30V422z M392,422h-30V241h30V422z"/>
	</g>
</g>
<g>
</g>
<g>
</g>
<g>
</g>
<g>
</g>
<g>
</g>
<g>
</g>
<g>
</g>
<g>
</g>
<g>
</g>
<g>
</g>
<g>
</g>
<g>
</g>
<g>
</g>
<g>
</g>
<g>
</g>
</svg>
