<?xml version="1.0" encoding="UTF-8" standalone="no"?>
<svg
   xmlns:dc="http://purl.org/dc/elements/1.1/"
   xmlns:cc="http://creativecommons.org/ns#"
   xmlns:rdf="http://www.w3.org/1999/02/22-rdf-syntax-ns#"
   xmlns:svg="http://www.w3.org/2000/svg"
   xmlns="http://www.w3.org/2000/svg"
   viewBox="0 0 492.37332 544.44"
   height="544.44"
   width="492.37332"
   xml:space="preserve"
   id="svg2"
   version="1.1"><metadata
     id="metadata8"><rdf:RDF><cc:Work
         rdf:about=""><dc:format>image/svg+xml</dc:format><dc:type
           rdf:resource="http://purl.org/dc/dcmitype/StillImage" /></cc:Work></rdf:RDF></metadata><defs
     id="defs6"><clipPath
       id="clipPath20"
       clipPathUnits="userSpaceOnUse"><path
         id="path18"
         d="M 0,0 H 3692.77 V 4083 H 0 Z" /></clipPath></defs><g
     transform="matrix(1.3333333,0,0,-1.3333333,0,544.44)"
     id="g10"><g
       transform="scale(0.1)"
       id="g12"><g
         id="g14"><g
           clip-path="url(#clipPath20)"
           id="g16"><path
             id="path22"
             style="fill:#231f20;fill-opacity:1;fill-rule:nonzero;stroke:none"
             d="m 1804.26,2968.75 c 19.5,153.61 -32.91,276.42 -163.7,336.72 -117.83,54.33 -244.24,90.05 -367.67,134.27 -46.63,-223.06 77.23,-409.96 291.63,-445.36 77.38,-12.77 156.18,-16.96 239.74,-25.63 z m 402.99,-22.06 c 134.51,38.47 275.1,58.57 395.73,118.74 124.4,62.06 166.8,226.64 128.64,375.31 -123.07,-44.99 -249.41,-81.52 -366.96,-136.73 -130.61,-61.33 -182.93,-186.82 -157.41,-357.32 z m -1182.13,953.96 c -91.276,-25.81 -184.175,-47.26 -273.694,-78.42 -169.738,-59.09 -326.813,-142.76 -451.457,-275.25 -84.992,-90.34 -73.024,-168.14 42.054,-209.3 96.809,-34.63 203.102,-44.62 306.168,-58.04 17.485,-2.28 54.942,31.35 57.418,51.55 10.887,88.75 62.227,137.91 142.426,156.77 72.602,17.07 147.621,23.87 219.275,34.84 -13.71,122.81 -27.2,243.58 -42.19,377.85 z m 1987.52,182.68 c -32.99,-141.18 40.25,-235.13 141.58,-313.48 45.92,-35.51 100.07,-60.18 148.28,-93.03 52.92,-36.07 108.3,-70.76 153.69,-115.18 86.96,-85.1 95.7,-181.16 31.43,-248.25 -67.68,-70.64 -199.04,-72.3 -279.89,-1.69 -28.46,24.86 -49.24,69.83 -80.49,77.6 -48.61,12.09 -103.88,3.84 -154.39,-5.89 -6.52,-1.26 -9.79,-65.29 -0.28,-95.8 37.25,-119.6 57.02,-240.02 19.24,-361.68 -93.41,-300.89 -510.86,-411 -738.69,-194.62 -41.79,39.69 -75.7,88.89 -107.84,137.29 -94.29,141.95 -185.74,143.38 -282.96,1.76 -6.61,-9.64 -12.87,-19.53 -19.27,-29.31 -142.85,-218.14 -335.08,-279.83 -565.69,-181.53 -232.47,99.09 -325.88,289.16 -265.07,542.15 12.8,53.23 29.98,105.4 51.04,178.52 -72.01,-6.31 -134.123,-8.07 -194.392,-19.53 -15.719,-2.99 -38.657,-38.12 -36.122,-55.2 13.039,-87.94 -41.406,-119.41 -109.257,-127.41 -154.473,-18.19 -303.903,6.64 -439.739,85.47 -142.304,82.58 -160.488,207.59 -45.293,325.39 142.969,146.19 326.184,223.14 517.496,282.42 64.028,19.84 129.059,40.47 195.118,48.55 61.519,7.52 97.699,28.33 93.029,90.83 148.01,-22.04 291.13,-43.35 416.65,-62.04 -25.91,-1.27 -71.31,-3.5 -120.24,-5.9 90.25,-60.66 174.06,-122.38 263.69,-173.97 27.15,-15.63 76.05,-15.36 105.42,-1.73 195.52,90.71 389.32,94.4 582.91,-0.52 56.16,-27.53 98.34,-13.43 143.79,22.96 153.45,122.83 329.34,194.78 541.46,231.85 -10.12,-168.69 -19.61,-326.88 -29.4,-490.27 138.29,39.21 246.9,-7.48 327.84,-134.99 33.68,-53.07 100.79,-63.8 144.02,-18.27 20.01,21.08 15.62,93.83 -5.89,120.04 -49,59.71 -115.75,104.76 -174.64,156.51 -67.58,59.39 -142.1,113.12 -199.54,181.18 -59.67,70.69 -77.62,158.12 -27.6,247.77" /><path
             id="path24"
             style="fill:#231f20;fill-opacity:1;fill-rule:nonzero;stroke:none"
             d="m 158.551,1393.38 c -55.336,-128.27 63.523,-69.94 80.519,-124.36 6.016,6.18 12.028,12.37 18.043,18.55 -32.851,35.28 -65.711,70.54 -98.562,105.81 z m 3296.319,559.9 c 90.5,-111.6 118.19,-240.52 101.58,-381.64 44.15,148.71 1.72,273.56 -101.58,381.64 z m -770.72,291.08 c -146.13,18.86 -436.18,-30.53 -519.96,-84.84 165.84,27.06 348.16,56.81 519.96,84.84 z M 2423.84,408.051 C 2362.62,291.66 2361.99,172.859 2408.46,121 c 5.41,62.77 11.5,120.41 14.98,178.211 2.16,36.168 0.4,72.559 0.4,108.84 z M 561.281,1376.04 c 1.891,-10.89 3.782,-21.78 5.676,-32.66 150.281,64.64 301.016,128.29 450.203,195.36 16.3,7.33 23.73,34.38 35.27,52.29 -6.17,6.24 -12.35,12.49 -18.52,18.74 C 876.363,1531.86 718.82,1453.95 561.281,1376.04 Z M 2835.87,1241.49 c 1.7,8.52 3.4,17.02 5.09,25.53 49.64,0 100.17,-5.62 148.6,2.06 30.22,4.78 68.39,22.41 84.04,46.56 169.81,262.05 134.24,569.94 -235.39,622.29 -8.59,1.23 -16.76,5.25 -25.32,6.9 -211.86,40.96 -424.53,56.4 -629.01,-26.88 -187.67,-76.43 -227.42,-242.64 -87.45,-389.66 70.05,-73.58 163.2,-138.7 258.36,-171.76 154.98,-53.83 320.19,-78.22 481.08,-115.04 z M 2496.84,86.5 c 32.65,142.238 65.31,284.48 99.6,433.879 C 2442.68,386.219 2461.24,191.441 2402.47,17.3398 2388.25,63.6992 2377.06,100.199 2360.79,153.219 2323.37,93.25 2294.28,46.6289 2265.18,0.0117188 2282.73,106.59 2349.61,201.73 2302.09,338.41 c -54.02,-60 -97.88,-108.719 -151.59,-168.379 18.33,117.348 104.33,192.399 161.64,293.778 -159.32,1.132 -199.46,-179.34 -336.29,-191.918 53.45,49.98 106.6,99.66 165.28,154.507 -101.85,29.973 -191.25,56.282 -280.65,82.582 1.21,4.258 2.43,8.508 3.64,12.762 53.68,-9.254 107.38,-18.363 161.03,-27.801 154.35,-27.179 157.49,-25.269 213.3,145.289 -142.52,-16.41 -278.37,-32.058 -414.22,-47.699 -1.05,3.141 -2.1,6.301 -3.16,9.449 84.79,23.29 168.9,62.25 254.52,65.93 107.99,4.649 183.28,55.5 248.9,126.32 66.57,71.86 135.44,117.602 238.25,89.719 18.42,-5 45.73,7.242 63.81,19.242 77.32,51.329 152.73,105.559 248.75,172.649 -44.91,6.84 -65.32,12.01 -85.89,12.77 -230.44,8.57 -446.28,75.06 -634.92,201.9 -97.82,65.77 -187.8,161.9 -245.54,264.46 -102.53,182.11 -5.04,410.37 191.59,480.96 304.39,109.25 612.77,92.46 910.15,-18 263.14,-97.74 360.19,-390.47 232.69,-640.06 -7.67,-15.02 -15.64,-29.89 -24.61,-47.03 277.94,67.76 372.51,358.88 187.1,567.63 -151.05,170.06 -356.19,230.3 -568.69,263.42 -298.47,46.52 -580.81,-17.61 -846.5,-156.57 -27.65,-14.46 -55.18,-43.71 -66.36,-72.47 -33.1,-85.22 -94.96,-109.03 -179.46,-109.21 -44.18,-0.09 -93.31,-7.48 -131.72,-27.7 -359.18,-189.12 -716.8,-381.22 -1073.777,-574.49 -25.312,-13.7 -51.527,-39.97 -61.019,-66.27 -48.934,-135.66 -120.574,-166.098 -246.715,-98.21 -22.793,12.27 -44.68,26.22 -69.082,40.64 -43.418,-33.28 -47.149,-60.7 -17.75,-110.258 58.394,-98.422 139.047,-153.25 247.16,-186.782 95.566,-29.64 184.547,-80.5 278.582,-122.961 -91.824,-182.5 -208.266,-69.519 -330.297,-43.308 44.985,-42.789 76.27,-72.531 107.555,-102.281 -1.649,-7.918 -3.293,-15.84 -4.938,-23.758 -42.336,11.047 -96.086,9.48 -124.836,35.527 -83.5,75.633 -156.699,162.609 -234.4644,244.633 -93.7461,98.867 -107.0391,205.437 -47.7813,329.708 25.0313,52.49 33.8868,117.16 33.8399,176.27 -0.1328,160.08 74.1448,226.87 229.2028,202.2 36.567,-5.82 80.524,-0.78 113.938,14.69 362.949,168.02 725.012,337.99 1085.562,511.06 37.66,18.08 62.05,62.08 96.27,89.48 40.32,32.26 91.73,91.1 125.99,83.42 135.61,-30.42 243.79,40.63 361.42,73.83 487.47,137.55 954.07,111.41 1375.57,-193.01 327.77,-236.73 308.82,-620.82 -31.02,-836.68 -44.21,-28.08 -89.83,-62.36 -139.16,-72.41 C 3113.11,1130.48 2980.02,1028.12 2841.5,925.922 2739.18,850.43 2633.36,801.41 2676.39,638.531 2692.94,575.922 2656.38,496.07 2634.3,427.191 2597.27,311.66 2552.44,198.609 2510.9,84.5117 c -4.69,0.6602 -9.38,1.3281 -14.06,1.9883" /><path
             id="path26"
             style="fill:#231f20;fill-opacity:1;fill-rule:nonzero;stroke:none"
             d="m 358.402,338.191 c 83.524,6.18 156.496,6.039 227.036,19.09 36.21,6.711 73.769,31.239 100.488,57.961 35.793,35.77 61.664,81.457 93.133,124.738 70.445,-94.66 57.566,-185.082 -30.539,-257.839 -115.805,-95.629 -270.118,-77.403 -390.118,56.05" /><path
             id="path28"
             style="fill:#231f20;fill-opacity:1;fill-rule:nonzero;stroke:none"
             d="m 278.16,489.02 c 186.715,-77.278 307.766,26.589 436.457,127.3 48.352,-39.058 34.922,-85.082 -8.277,-108.89 C 618.777,459.148 527.348,414.191 432.336,384.301 359.871,361.512 304.156,402.102 278.16,489.02" /></g></g></g></g></svg>