<?xml version="1.0" encoding="UTF-8" standalone="no"?>
<svg
   xmlns:dc="http://purl.org/dc/elements/1.1/"
   xmlns:cc="http://creativecommons.org/ns#"
   xmlns:rdf="http://www.w3.org/1999/02/22-rdf-syntax-ns#"
   xmlns:svg="http://www.w3.org/2000/svg"
   xmlns="http://www.w3.org/2000/svg"
   viewBox="0 0 340.35999 571.85333"
   height="571.85333"
   width="340.35999"
   xml:space="preserve"
   id="svg2"
   version="1.1"><metadata
     id="metadata8"><rdf:RDF><cc:Work
         rdf:about=""><dc:format>image/svg+xml</dc:format><dc:type
           rdf:resource="http://purl.org/dc/dcmitype/StillImage" /></cc:Work></rdf:RDF></metadata><defs
     id="defs6"><clipPath
       id="clipPath20"
       clipPathUnits="userSpaceOnUse"><path
         id="path18"
         d="M 0,4288.89 V 0 h 2552.69 v 4288.89 z" /></clipPath></defs><g
     transform="matrix(1.3333333,0,0,-1.3333333,0,571.85333)"
     id="g10"><g
       transform="scale(0.1)"
       id="g12"><g
         id="g14"><g
           clip-path="url(#clipPath20)"
           id="g16"><path
             id="path22"
             style="fill:#231f20;fill-opacity:1;fill-rule:nonzero;stroke:none"
             d="m 1480.39,2590.87 c 47.94,61.02 44.81,299.12 -2.58,351.11 -61.96,-116.49 -66.57,-232.99 2.58,-351.11 z m 822.69,-48.17 c 58.01,172.98 30.24,353.32 -31.61,518.17 -39.87,-178.19 17.32,-339.66 31.61,-518.17 z M 1302.5,2357.03 c -34.53,142.04 -81.42,282.56 -99.2,426.68 -11.72,95.03 12.93,196.28 31.49,292.78 16.97,88.21 50.93,173.01 71.5,260.69 27.96,119.14 106.74,190.08 210.41,242.48 66.81,33.76 134.38,67.47 195.65,109.84 17.99,12.43 27.4,58.04 19.99,82.04 -14.53,47.06 -58.51,88.08 -63.3,134.4 -7.61,73.49 -1.46,151.13 14.41,223.61 16.46,75.11 82.41,118.59 150.6,120.06 94.39,2.05 156.02,-30.53 184.13,-112.43 22.7,-66.2 36.3,-136.47 45.01,-206.05 3.54,-28.27 -16.53,-59.49 -25.85,-89.37 -5.99,0.91 -11.97,1.81 -17.96,2.71 9.9,-39.09 17.76,-78.89 30.91,-116.87 4.18,-12.09 21.22,-21.53 34.34,-28.42 90.73,-47.62 183.88,-91 271.98,-143 29.19,-17.22 56.06,-52.45 66.53,-85.07 83.54,-260.17 155.5,-522.76 120.47,-801.07 -6.62,-52.68 -5.84,-107.12 -19.4,-157.83 -11.19,-41.88 -39.99,-78.78 -58.33,-119.09 -25.25,-55.5 -80.35,-95.37 -63.48,-172.61 20.51,-93.93 7.18,-186.6 -37.74,-277.86 -19.36,-39.36 1.34,-98.62 4.41,-148.8 5.79,-95.21 7.08,-191.04 19.53,-285.39 10.53,-79.77 11.24,-157.43 -11.88,-233.79 -10.7,-35.36 -31.65,-67.6 -47.59,-101.41 -39.61,-84.01 -80.58,-167.43 -117.62,-252.549 -12.42,-28.531 -11.54,-62.641 -22.41,-92.121 -10.35,-28.031 -33.33,-51.918 -41,-80.27 -6.74,-24.871 -4.4,-54.468 1.74,-80.109 17.05,-71.18 44.71,-140.492 54.48,-212.402 3.92,-28.84 -21.12,-79.289 -45.5,-89.239 -23.48,-9.578 -69.93,12.789 -94.25,34.551 -54.33,48.617 -85.55,112.34 -81.9,188.469 3.03,62.992 -15.8,116.93 -56.52,166.301 -53.45,64.789 -51.66,81.929 -3.22,151.058 3.04,4.332 6.22,8.813 8.01,13.711 44.07,119.71 88.07,239.45 131.62,359.35 2.92,8.05 4.84,18.07 2.83,26.05 -19.67,77.99 -40.07,155.8 -60.78,233.51 -3.62,13.56 -10.23,26.3 -14.49,39.73 -25.79,81.23 -51.29,162.56 -76.88,243.85 -8.62,-0.51 -17.23,-1.03 -25.84,-1.56 -10.21,-49.3 -25.85,-98.18 -29.57,-147.96 -10.28,-137.57 -15.5,-275.51 -22.96,-413.28 -0.67,-12.32 1.34,-28.06 -5.29,-36.27 -62.33,-77.21 -20.99,-158.71 -11.25,-238.51 11.55,-94.601 27.73,-188.711 36.87,-283.519 4.58,-47.571 -9.21,-97.41 -1.55,-144.059 8.4,-51.101 39.33,-98.621 46.8,-149.691 7.43,-50.692 -2.41,-103.86 -4.16,-155.961 -1.57,-46.789 -8.61,-94.469 -2.25,-140.231 11.62,-83.5895 -14.8,-117.69884 -99.68,-111.378531 -31.61,2.359371 -63.19,8.039061 -94.21,14.871131 -59.91,13.1601 -69.09,28.5586 -51.9,88.3204 7.78,27.07 23.48,52.137 29.08,79.469 5.45,26.57 7.72,55.988 1.94,82.078 -6.22,28.082 -38.29,47.773 -14.37,86.011 7.05,11.29 -23.37,43.489 -32.3,67.711 -66.58,180.59 -100.52,368.297 -115.74,559.379 -6.99,87.85 -3.95,176.52 -11.64,264.26 -4.75,54.1 -28.89,106.9 -30.87,160.77 -5.29,143.29 -5.33,286.89 -3.55,430.31 1.44,115.9 19.15,232.7 8.81,347.22 -5.32,59.03 -52.53,116.37 -88.63,169.12 -9.55,13.95 -48.12,8.05 -73.37,11.27 -5.04,-1.5 -10.08,-3 -15.11,-4.49" /><path
             id="path24"
             style="fill:#231f20;fill-opacity:1;fill-rule:nonzero;stroke:none"
             d="m 201.84,3570.14 c 10.781,-2 21.558,-4 32.34,-6 7.058,53.51 14.121,107.02 21.179,160.53 -7.414,1.19 -14.828,2.38 -22.246,3.57 -10.422,-52.7 -20.847,-105.4 -31.273,-158.1 z M 957.992,2449.49 c 3.946,-86.78 7.891,-173.56 11.836,-260.34 42.772,89.61 3.977,174.32 -11.836,260.34 z m -59.176,574.23 c -53.039,-138.63 -33.011,-270.36 22.547,-402.05 -7.613,135.81 -15.078,268.93 -22.547,402.05 z M 218.438,2707.81 c 6.031,-0.66 12.058,-1.32 18.085,-1.98 97.254,127.48 78.61,267.38 44,409 -5.734,0.62 -11.464,1.24 -17.203,1.86 -14.961,-136.29 -29.922,-272.59 -44.882,-408.88 z m 732.656,-802.33 c -10.055,-77.66 -15.852,-153.3 -30.524,-227.18 -15.164,-76.39 -47.527,-150.07 -56.523,-226.79 -8.711,-74.31 -6.734,-152.9 8.07,-226.06 13.817,-68.25 14.133,-131.96 0.653,-198.71 -20.95,-103.748 -46.891,-207.4 -55.954,-312.369 -8.625,-99.82 9.282,-199.582 66.051,-287.172 44.301,-68.34 57.914,-139.797 21.121,-215.347 -33.953,-69.75 -96.222,-75.5 -139.242,-12.641 -32.422,47.359 -47.523,98.391 -48.617,158.629 -1.277,69.762 -21.051,139.18 -32.848,208.742 -1.758,10.359 -7.883,21.949 -5.113,30.809 45.293,145.16 -13.07,282.449 -30.91,422.749 -0.223,1.74 -1.008,3.43 -1.149,5.18 -14.921,181.83 -29.82,363.64 -44.648,545.47 -1.012,12.35 1.242,25.78 -2.977,36.82 -3.586,9.39 -14.324,16.05 -21.898,23.92 -6.523,-9.85 -19.488,-20.4 -18.512,-29.44 5.516,-50.91 17.719,-101.23 21.246,-152.2 4.227,-60.97 -0.297,-122.54 3.203,-183.6 4.122,-71.9 13.93,-143.46 19.165,-215.31 5.777,-79.238 10.136,-158.628 13.332,-238.019 3.621,-90.172 4.257,-180.461 8.449,-270.602 1.129,-24.257 10.297,-48.179 16.082,-72.179 15.59,-64.731 31.66,-129.34 46.941,-194.141 12.516,-53.07 20.77,-107.41 37.008,-159.258 C 747.656,39.6602 717.973,-3.28125 637.898,0.730469 630.82,1.08984 623.746,1.53125 616.66,1.78906 533.77,4.74219 506.262,36.4297 524.512,118.148 c 32.531,145.684 3.433,287.434 -27.957,427.512 -34.723,154.981 -83.102,306.86 -119.989,461.41 -14.609,61.22 -19.148,125.97 -19.8,189.19 -1.551,150.2 -35.95,293.52 -81.961,434.81 -3.184,9.78 -18.078,17.4 -29.145,22.47 -10.949,5.03 -23.933,5.72 -36.074,8.04 -113.5274,21.69 -113.8555,21.66 -116.2813,134.36 -0.8164,37.96 -0.2734,65.78 -43.9727,93.49 -32.125,20.38 -51.09372,86.42 -49.199187,130.97 6.582027,155 28.367187,309.3 37.445287,464.28 6.9336,118.34 17.3711,234.12 42.875,351.3 24.8129,113.97 13.8789,235.8 17.75,354.22 3.2769,100.25 -7.8086,202.38 41.9689,296.03 2.418,4.54 2.039,13.18 5.121,14.39 82.336,32.13 25.668,107.68 54.324,156.29 -5.078,1.25 -10.148,2.49 -15.222,3.74 -6.754,-31.56 -13.5,-63.12 -20.254,-94.68 -2.539,-0.65 -5.082,-1.31 -7.621,-1.96 -2.379,24.28 -10.282,49.65 -5.704,72.54 5.372,26.87 18.379,53.7 33.688,76.84 44.73,67.61 65.902,139.89 56.672,221.15 -6.379,56.17 14.179,102.83 51.16,145.48 36.93,42.6 70.902,88.09 102.98,134.51 61.481,88.99 185.196,101.77 254.196,18.38 86.941,-105.07 159.351,-217.3 169.961,-361.7 3.902,-53.11 37.722,-103.92 57.074,-156.1 4.883,-13.16 10.625,-27.96 9.098,-41.22 -8.594,-74.35 22.035,-116.51 94.183,-139.6 20.832,-6.66 42.072,-45.63 44.272,-71.4 12.13,-142.6 17.24,-285.78 27.14,-428.6 7.65,-110.5 22.52,-220.61 27.33,-331.19 4.54,-104.22 -3.83,-209 0.76,-313.21 4.55,-103.42 15.06,-206.85 28.98,-309.45 8.61,-63.57 -53.84,-148.92 -135.236,-170.96 -5.051,-1.36 -10.332,-1.91 -21.98,-4" /></g></g></g></g></svg>