<?xml version="1.0" encoding="iso-8859-1"?>
<!-- Generator: Adobe Illustrator 16.0.0, SVG Export Plug-In . SVG Version: 6.00 Build 0)  -->
<!DOCTYPE svg PUBLIC "-//W3C//DTD SVG 1.1//EN" "http://www.w3.org/Graphics/SVG/1.1/DTD/svg11.dtd">
<svg version="1.1" id="Capa_1" xmlns="http://www.w3.org/2000/svg" xmlns:xlink="http://www.w3.org/1999/xlink" x="0px" y="0px"
	 width="79.663px" height="79.663px" viewBox="0 0 79.663 79.663" style="enable-background:new 0 0 79.663 79.663;"
	 xml:space="preserve">
<g>
	<path d="M69.153,13.079L46.587,67.321c-0.177,0.44-0.621,0.729-1.114,0.729h-5.47c-0.394,0-0.763-0.184-0.986-0.492
		c-0.223-0.309-0.271-0.699-0.13-1.051l22.4-54.242c0.178-0.441,0.62-0.73,1.115-0.73h5.636c0.395,0,0.763,0.184,0.986,0.494
		C69.246,12.337,69.295,12.73,69.153,13.079z M73.65,55.175c-3.477,0-6.096,2.588-6.096,6.023c0,3.432,2.55,6.02,5.932,6.02h0.082
		c3.532,0,6.095-2.533,6.095-6.02C79.663,57.708,77.134,55.175,73.65,55.175z M22.001,34.563c-8.307-3.056-9.769-5.141-9.769-8.394
		c0-2.99,2.633-6.008,8.515-6.008c5.26,0,8.559,1.706,9.448,2.23c0.48,0.281,1.061,0.353,1.632,0.161
		c0.558-0.193,0.987-0.616,1.177-1.156l1.973-5.541c0.306-0.853-0.057-1.798-0.863-2.248c-1.525-0.849-5.856-2.823-13.119-2.823
		c-11.683,0-19.842,6.647-19.842,16.166c0,7.58,5.202,13.062,15.896,16.755c7.672,2.723,9.173,5.223,9.173,8.62
		c0,4.445-3.614,7.1-9.667,7.1c-4.161,0-8.434-1.146-11.723-3.148c-0.493-0.299-1.113-0.365-1.66-0.18
		c-0.563,0.195-1.007,0.644-1.188,1.193l-1.891,5.699c-0.268,0.807,0.055,1.691,0.783,2.152c3.418,2.166,9.805,3.737,15.186,3.737
		c15.678,0,21.24-9.213,21.24-17.103C37.304,43.626,32.872,38.639,22.001,34.563z"/>
</g>
<g>
</g>
<g>
</g>
<g>
</g>
<g>
</g>
<g>
</g>
<g>
</g>
<g>
</g>
<g>
</g>
<g>
</g>
<g>
</g>
<g>
</g>
<g>
</g>
<g>
</g>
<g>
</g>
<g>
</g>
</svg>
