<?xml version="1.0" encoding="iso-8859-1"?>
<!-- Generator: Adobe Illustrator 18.1.1, SVG Export Plug-In . SVG Version: 6.00 Build 0)  -->
<svg version="1.1" id="Capa_1" xmlns="http://www.w3.org/2000/svg" xmlns:xlink="http://www.w3.org/1999/xlink" x="0px" y="0px"
	 viewBox="0 0 294.498 294.498" style="enable-background:new 0 0 294.498 294.498;" xml:space="preserve">
<g>
	<path style="fill:#010002;" d="M147.945,0C66.631,0,0.666,65.905,0.666,147.284c0,81.33,65.965,147.214,147.279,147.214
		c81.33,0,145.887-65.883,145.887-147.214C293.832,65.905,229.276,0,147.945,0z M159.286,233.793
		c-3.28,3.062-7.316,5.336-11.971,5.336c-4.716,0-8.713-2.274-12.037-5.336c-3.383-3.1-5.047-7.196-5.047-11.563
		c0-4.4,1.664-8.496,5.047-11.65c3.323-3.106,7.321-4.993,12.037-4.993c4.656,0,8.697,1.556,11.971,4.661
		c3.323,3.106,4.988,7.587,4.988,11.988C164.273,226.597,162.609,230.692,159.286,233.793z M172.96,145.8
		c-14.093,12.004-21.348,27.875-21.348,31.53c0,4.433,1.039,7.049,2.605,10.182c1.3,2.089,0,2.872-1.566,2.872
		c-10.176,0-21.142-4.438-21.142-16.181c0-6.005,4.433-19.782,16.181-34.663c5.744-7.827,9.399-17.487,9.399-26.102
		c0-15.398-9.654-22.969-18.792-22.969c-11.487,0-18.27,10.182-18.27,21.142c0,2.611,0.256,10.704,1.561,13.576
		c0.522,1.039-0.261,2.35-2.861,2.35c-8.093,0-13.5-6.119-16.192-14.098c-2.921-8.659-2.632-30.132,13.63-44.987
		c11.281-10.296,31.378-10.051,43.795-8.409c24.595,3.247,33.412,27.815,33.412,42.436
		C193.633,119.959,190.702,130.135,172.96,145.8z"/>
</g>
<g>
</g>
<g>
</g>
<g>
</g>
<g>
</g>
<g>
</g>
<g>
</g>
<g>
</g>
<g>
</g>
<g>
</g>
<g>
</g>
<g>
</g>
<g>
</g>
<g>
</g>
<g>
</g>
<g>
</g>
</svg>
