<?xml version="1.0" encoding="UTF-8" standalone="no"?>
<svg
   xmlns:dc="http://purl.org/dc/elements/1.1/"
   xmlns:cc="http://creativecommons.org/ns#"
   xmlns:rdf="http://www.w3.org/1999/02/22-rdf-syntax-ns#"
   xmlns:svg="http://www.w3.org/2000/svg"
   xmlns="http://www.w3.org/2000/svg"
   viewBox="0 0 291.66666 598.62665"
   height="598.62665"
   width="291.66666"
   xml:space="preserve"
   id="svg2"
   version="1.1"><metadata
     id="metadata8"><rdf:RDF><cc:Work
         rdf:about=""><dc:format>image/svg+xml</dc:format><dc:type
           rdf:resource="http://purl.org/dc/dcmitype/StillImage" /></cc:Work></rdf:RDF></metadata><defs
     id="defs6"><clipPath
       id="clipPath20"
       clipPathUnits="userSpaceOnUse"><path
         id="path18"
         d="M 0,4489.66 V 0 h 2187.51 v 4489.66 z" /></clipPath></defs><g
     transform="matrix(1.3333333,0,0,-1.3333333,0,598.62667)"
     id="g10"><g
       transform="scale(0.1)"
       id="g12"><g
         id="g14"><g
           clip-path="url(#clipPath20)"
           id="g16"><path
             id="path22"
             style="fill:#231f20;fill-opacity:1;fill-rule:nonzero;stroke:none"
             d="m 433.754,2805.04 c -88.68,112.44 -177.719,225.32 -270.68,343.18 80.52,87.07 153.192,165.65 226.66,245.1 139.133,-206.65 167.786,-496.53 44.02,-588.28 z m 1199.486,-677.9 c 121.34,29.08 160.59,-10.2 216.51,-227.01 -109.26,-26.62 -212.85,-51.85 -316.7,-77.14 -26.44,126.21 29.26,287.15 100.19,304.15 z M 1477.91,754.781 c -43.55,43.039 -71.6,101.989 -105.72,154.321 -115.31,176.838 -232.06,352.768 -343.85,531.808 -28.621,45.84 -54.277,100.87 -58.113,153.37 -8.618,117.87 -13.618,238.22 1.609,354.73 8.535,65.22 59.994,124.99 93.044,186.72 9.38,17.49 28.85,31.96 32.19,49.93 43.52,234.62 90.58,471.95 -61.3,687.12 -103.739,146.99 -77.098,285.67 8.5,441.94 26.31,-58.4 53.93,-103.69 67.61,-152.85 62.75,-225.31 168.38,-426.15 327.6,-598.21 134.68,-145.55 133.02,-315.29 76.41,-488.46 -37.22,-113.84 -68.6,-226.91 -129.84,-337.53 -63.51,-114.75 -47.31,-277.53 -52.12,-419.77 -4.93,-145.57 55.04,-188.48 200.77,-156.28 85.01,18.78 167.96,46.74 252.47,67.95 3.88,3.87 8.56,7.14 14.06,9.56 97.05,42.73 195.37,77.35 297.04,94.8 33,9.58 60.85,24.29 89.24,41.43 -3.15,13.57 -5.63,27.27 -7.27,41.08 -19.63,32.52 -35.73,66.51 -48.59,101.55 -41.74,90.37 -88.08,175.24 -111.09,266.02 -20.57,81.15 -43.16,135.73 -124.72,131.57 -64.55,148.88 -118.74,292.6 -187.71,428.84 -117.73,232.51 -254.98,455.6 -363.81,691.96 -61.27,133.04 -78.81,285.71 -122.17,427.68 -37.03,121.24 -22.33,269.92 -170.32,337.69 -13.89,6.37 -22,41.93 -20.3,62.93 8.03,99.32 17.85,198.64 31.82,297.28 23.49,165.68 -49.62,291.93 -190.76,322.35 C 733.48,4514.3 589.473,4415 545.746,4265.7 506.254,4130.82 459.711,3998.03 416.664,3864.2 400.082,3812.64 394.926,3754.08 366.711,3710.19 263.461,3549.61 159.465,3388.56 42.0352,3238.41 c -62.8047,-80.32 -52.2461,-134.4 11.8164,-195.63 95.7894,-91.57 194.6094,-180.12 287.3474,-274.66 55.438,-56.51 105.77,-110.4 196.367,-53.96 6.715,-34.07 14.133,-57.02 15.379,-80.3 C 566.355,2384 563.555,2136 526.383,1886.46 487.047,1622.43 475.016,1354.4 448.344,1088.39 429.234,897.742 423.539,703.23 378.844,518.43 337.336,346.809 353.551,134.059 142.328,42.0703 c -1.484,-0.6484 -0.656,-6.6094 -2.793,-35.99999 87.844,0 179.977,-17.01951 260.774,5.91019 55.011,15.6211 94.168,87.1289 142.402,135.6485 3.965,-31.75 8.309,-66.5665 12.66,-101.379 36.285,113.102 75.824,232.23 56.934,341.219 -16.879,97.39 -19.832,182.16 8.675,273.84 22.672,72.89 43.692,147.39 54.215,222.742 23.754,170.139 40.563,341.249 61.051,519.389 24.992,-28.16 54.777,-55.61 77.254,-88.11 82.367,-119.14 163.199,-239.38 242.93,-360.318 90.09,-136.653 189.2,-268.903 264.21,-413.52 65.39,-126.051 118.17,-267.812 -31.64,-384.613 -8.12,-6.328 -7.32,-24.129 -12.57,-43.649 219.54,-8.101 293.35,114.571 280.4,341.758 53.11,-73.316 81.37,-112.316 118.88,-164.097 -24.97,185.41 -72.46,340.05 -197.8,463.89" /></g></g></g></g></svg>