<?xml version="1.0" encoding="UTF-8" standalone="no"?>
<svg
   xmlns:dc="http://purl.org/dc/elements/1.1/"
   xmlns:cc="http://creativecommons.org/ns#"
   xmlns:rdf="http://www.w3.org/1999/02/22-rdf-syntax-ns#"
   xmlns:svg="http://www.w3.org/2000/svg"
   xmlns="http://www.w3.org/2000/svg"
   viewBox="0 0 517.32001 335.88"
   height="335.88"
   width="517.32001"
   xml:space="preserve"
   id="svg2"
   version="1.1"><metadata
     id="metadata8"><rdf:RDF><cc:Work
         rdf:about=""><dc:format>image/svg+xml</dc:format><dc:type
           rdf:resource="http://purl.org/dc/dcmitype/StillImage" /></cc:Work></rdf:RDF></metadata><defs
     id="defs6"><clipPath
       id="clipPath20"
       clipPathUnits="userSpaceOnUse"><path
         id="path18"
         d="M 0,0 H 3879.9 V 2519 H 0 Z" /></clipPath></defs><g
     transform="matrix(1.3333333,0,0,-1.3333333,0,335.88)"
     id="g10"><g
       transform="scale(0.1)"
       id="g12"><g
         id="g14"><g
           clip-path="url(#clipPath20)"
           id="g16"><path
             id="path22"
             style="fill:#231f20;fill-opacity:1;fill-rule:nonzero;stroke:none"
             d="m 1966.98,1643.09 c -63.24,-120.5 10.08,-339.29 123.14,-353.99 -26.19,50.25 -63.05,98.4 -76.1,152.32 -13.22,54.63 -2.92,114.96 -2.92,166.81 -16.61,13.12 -29.52,23.32 -44.12,34.86 z m 186.88,54.78 c 102.86,-151.62 92.76,-322.52 106.66,-489.65 13.35,29.05 24.76,58.27 33.41,88.29 38.89,135.13 37.3,266.97 -31.81,393.81 -15.6,28.63 -35.85,36.89 -65.09,26.27 -13.22,-4.81 -25.89,-11.16 -43.17,-18.72 z m -135.8,140.7 c -30.54,14.69 -61.41,28.74 -91.4,44.48 -8.03,4.21 -19.95,15.58 -18.55,20.06 2.71,8.69 12.38,18.11 21.32,21.46 39.14,14.66 78.65,28.88 119.03,39.34 8.92,2.3 27.28,-8.67 32.11,-18.19 12.83,-25.31 20.65,-53.15 30.48,-79.98 2.85,-7.81 5.73,-15.6 8.6,-23.39 4.01,0.66 8.04,1.33 12.05,1.99 -4.8,42.45 -9.62,84.89 -14.84,130.99 12.44,1.53 27.27,4.67 42.15,4.97 182.43,3.8 356.64,-32.41 523.06,-107.19 8.02,-3.61 21.76,-3.62 28.69,0.96 69.42,45.81 143.26,48 218.49,20.95 158.24,-56.93 262.99,-172.37 338.31,-317.8 33.8,-65.25 51.96,-135.38 57.23,-208.93 12.13,-169.54 2.58,-336.7 -48.6,-500.239 -8.21,-26.211 -20.3,-33.332 -46.6,-32.75 -73.8,1.648 -141.43,13.199 -205.48,57.879 -80.77,56.371 -177.31,63.218 -273.4,55.109 -157.89,-13.328 -315.65,-28.277 -473.35,-43.777 -92.63,-9.102 -172.19,-43.371 -227.59,-123.274 -6.03,-8.687 -24.36,-13 -36.71,-12.508 -102.35,4.008 -204.72,14.801 -306.89,12.961 -68.43,-1.242 -137.08,-17.293 -204.56,-31.691 -28.12,-6 -55.31,-22.211 -79.69,-38.57 -53.61,-36 -69.85,-93.508 -47.3,-154.071 17.1,-45.918 10.52,-51.211 -35.4,-69.238 -62.13,-24.391 -122.33,-54.223 -181.69,-84.941 -44.88,-23.219 -86.14,-53.391 -130.85,-76.989 -47.282,-24.972 -95.047,-25.281 -139.434,9.84 C 616.984,549.949 362.5,780.512 147.355,1051.06 99.0781,1111.77 56.3242,1178.83 22.3281,1248.48 -28.6914,1352.99 8.73438,1405.27 124.16,1398.59 c 114.742,-6.63 220.832,-48.72 327.762,-86.68 45.609,-16.19 91.414,-32.76 138.351,-44.09 106.657,-25.75 211.848,-26.17 311.602,34.54 87.941,-137.21 160.285,-286.05 322.375,-348.95 2.52,1.922 5.03,3.84 7.55,5.75 -6.77,10.16 -13.82,20.149 -20.27,30.488 -67.57,108.292 -137.39,215.262 -201.62,325.502 -35.496,60.91 -58.172,128.39 -63.281,200.16 -6.367,89.39 28.894,155.88 111.501,191 47.97,20.4 100.62,31.03 152.06,41.71 39.39,8.17 47.49,0.09 57.12,-39.8 3.22,-13.38 5,-27.11 7.89,-43.2 21.61,51.98 -16,134.66 81.55,140.59 15.25,-97.81 12.69,-199.79 65.05,-288.22 3.3,0.54 6.6,1.08 9.9,1.61 -5.47,43.76 -10.86,87.52 -16.44,131.27 -5.84,45.88 -10.38,92 -18.29,137.52 -5.39,30.98 9.18,42.84 35.78,46.49 34.83,4.78 69.78,8.58 107.72,13.17 8.61,-27.18 17.09,-53.99 25.59,-80.81 2.55,-0.21 5.11,-0.43 7.67,-0.64 1.14,10.48 2.01,21.01 3.48,31.45 5.65,40.23 7.88,81.37 18.19,120.38 12.5,47.31 38.11,56.31 82.57,36 75.07,-34.31 149.21,-70.9 225.5,-102.23 34.97,-14.35 74.13,-18.51 111.38,-27.28 1.07,4.75 2.14,9.5 3.21,14.25" /><path
             id="path24"
             style="fill:#231f20;fill-opacity:1;fill-rule:nonzero;stroke:none"
             d="m 2163.05,190.551 c -17.32,7.379 -34,17.289 -52.02,21.73 -127.14,31.328 -254.42,62.078 -381.93,91.828 -52.51,12.25 -105.31,25.262 -158.71,30.993 -42.91,4.589 -55.94,22.707 -51.78,70.207 1.81,20.652 14.3,40.339 23.18,63.742 0.81,-1.41 -0.42,1.66 -2.42,4.097 -50.82,62.114 -43.95,91.883 30.92,123.262 89.76,37.621 184.53,38.969 279.58,34.262 82.48,-4.09 164.86,-10.172 247.3,-14.992 33.36,-1.95 58.47,4.281 77.02,40.218 33.04,63.973 95.04,89.93 163.68,96.672 61.28,6.012 123.25,4.93 184.55,10.782 95.3,9.078 190.13,22.98 285.43,31.878 97.72,9.141 188.4,-6.121 272.97,-65.039 38.14,-26.57 92.57,-40.839 139.75,-41.179 125.18,-0.891 250.6,6.597 375.63,15.136 86.15,5.891 109.78,-1.769 149.47,-79.769 57.56,-113.078 77.34,-233.25 58.29,-359.078 -2.61,-17.27 -7.76,-34.469 -14.07,-50.813 -25.77,-66.726 -70.16,-92.906 -140.09,-78.34 -98.02,20.434 -195.68,42.731 -292.96,66.383 -142.64,34.688 -282.4,38.969 -420.61,-21.929 -55.14,-24.313 -114.35,-39.563 -172.08,-57.77 C 2577.67,64 2388.76,14.1719 2191.6,17.7383 c -117.01,2.1328 -233.01,2.582 -348.94,-15.75002 -45.21,-7.13672 -52.9,3.94141 -46.92,48.82032 5.95,44.6797 31.52,73.3124 74.93,81.3714 77.81,14.449 156.21,25.789 234.35,38.449 18.88,3.062 37.72,6.223 56.59,9.332 0.48,3.527 0.96,7.059 1.44,10.59" /><path
             id="path26"
             style="fill:#231f20;fill-opacity:1;fill-rule:nonzero;stroke:none"
             d="m 1797.93,2194.18 c -15.14,19.53 -25.66,34.28 -37.38,48.02 -36.14,42.35 -59.18,89.98 -61.05,146.5 -1.45,43.88 11.66,82.34 42.26,114.5 18.19,19.11 32.75,23.22 53.35,-0.42 39.77,-45.63 83.27,-87.98 124.99,-131.94 84.69,-89.22 187.64,-139.97 308.63,-165.7 179.3,-38.13 355.31,-39.29 533.13,6.42 173.77,44.67 349.22,82.78 523.25,126.51 57.38,14.42 112.11,39.13 168.99,55.91 50.28,14.83 101.34,32.08 152.99,35.99 89.71,6.78 156.42,-37.1 189.9,-120.09 29.58,-73.31 53.26,-149.28 74.96,-225.38 19.04,-66.74 3.29,-130.45 -40.78,-183.04 -17.12,-20.44 -45.29,-37.08 -71.37,-43.54 -92.85,-22.98 -186.7,-42.13 -280.68,-60.12 -55.11,-10.55 -111.36,-15 -166.69,-24.56 -20.57,-3.55 -31.76,2.06 -43.75,18.38 -66.92,90.98 -148.75,165.42 -250.62,215.69 -99.95,49.34 -202.35,66.26 -309.25,20.2 -10.97,-4.72 -27.66,-1.54 -39.9,2.9 -166.05,60.29 -335.89,99.69 -513.83,91 -80.49,-3.93 -158.77,-21.88 -234.33,-50.48 -10.28,-3.88 -22.75,-6.64 -29.58,-14.13 -37.69,-41.35 -74.15,-24.09 -112.42,-1.29 -22.64,13.49 -46.85,24.54 -70.97,35.35 -82.84,37.1 -151.51,11.02 -184.76,-73.56 -10.31,-26.23 -24.55,-33.1 -50.21,-36.11 -83.4,-9.78 -162.87,-31.28 -233.43,-80.74 -72.32,-50.7 -217.74,-12.56 -260.528,65.88 -19.016,34.87 -5.508,60.41 37.848,66.48 39.21,5.49 80,3.01 118.12,12.2 105.88,25.52 210.15,57.81 316.18,82.63 97.29,22.79 196.02,39.43 294.16,58.56 14.8,2.88 29.82,4.55 52.77,7.98" /></g></g></g></g></svg>