<?xml version="1.0" encoding="iso-8859-1"?>
<!-- Generator: Adobe Illustrator 18.0.0, SVG Export Plug-In . SVG Version: 6.00 Build 0)  -->
<!DOCTYPE svg PUBLIC "-//W3C//DTD SVG 1.1//EN" "http://www.w3.org/Graphics/SVG/1.1/DTD/svg11.dtd">
<svg version="1.1" id="Capa_1" xmlns="http://www.w3.org/2000/svg" xmlns:xlink="http://www.w3.org/1999/xlink" x="0px" y="0px"
	 viewBox="0 0 460.482 460.482" style="enable-background:new 0 0 460.482 460.482;" xml:space="preserve">
<path d="M459.16,271.449l-30.113-46.989c4.146-3.614,8.186-7.371,12.103-11.288c2.222-2.223,2.823-5.595,1.505-8.449L391.952,94.969
	c-1.028-2.226-3.079-3.808-5.493-4.238c-2.415-0.432-4.885,0.347-6.619,2.081c-20.915,20.915-45.376,37.259-72.703,48.579
	s-56.181,17.059-85.759,17.059H7.5c-2.559,0-4.939,1.304-6.318,3.459c-0.784,1.226-1.167,2.63-1.167,4.041H0v86.662
	c0,1.086,0.236,2.159,0.691,3.146L51.394,365.51l0.004-0.002c1.189,2.572,3.785,4.361,6.805,4.361h394.78c4.143,0,7.5-3.358,7.5-7.5
	v-86.67C460.482,274.12,459.992,272.657,459.16,271.449z M15,200.068l35.702,77.284v8.443L15,208.511V200.068z M72.156,173.449
	h115.526l9.708,21.014c-18.702,3.076-41.397,9.849-41.397,24.609c0,21.444,47.46,26.11,65.287,27.105l10.173,22.022H126.104
	c-5.429-17.025-31.523-29.177-64.932-29.177c-3.844,0-7.659,0.185-11.413,0.52L31.266,199.51
	C52.666,195.283,67.753,185.621,72.156,173.449z M214.111,230.659c-25.555-2.226-39.967-8.137-42.835-11.573
	c2.228-2.529,12.188-7.568,32.664-10.446L214.111,230.659z M235.681,311.61H65.702v-5.798h169.979V311.61z M62.997,268.199
	l-6.5-14.072c1.552-0.063,3.109-0.106,4.675-0.106c23.996,0,40.946,7,47.715,14.177H62.997z M235.681,290.811H65.702v-7.609h169.979
	V290.811z M65.702,326.61h169.979v5.999H65.702V326.61z M250.681,283.203c0,0,25.006-0.026,26.806-0.066v71.732h-26.806V283.203z
	 M292.486,326.61h152.996v5.999H292.486V326.61z M292.486,311.61v-5.798h152.996v5.798H292.486z M292.486,290.811v-7.613h152.996
	v7.613H292.486z M439.261,268.199h-83.86c2.738-1.02,5.467-2.073,8.178-3.196c19.344-8.013,37.333-18.399,53.773-30.991
	L439.261,268.199z M400.949,227.45c-3.364-10.993,4.195-26.021,18.498-37.196l7.37,15.953
	C418.693,213.968,410.052,221.049,400.949,227.45z M382.739,110.794l6.232,13.491c-13.661,6.82-26.433,9.72-35.676,9.496
	C363.667,126.922,373.5,119.254,382.739,110.794z M312.877,155.248c7.744-3.208,15.268-6.802,22.567-10.757
	c5.136,2.864,11.667,4.272,19.082,4.272c11.994,0,26.299-3.687,40.742-10.848l17.751,38.424
	c-22.838,16.371-33.334,41.107-24.893,59.483c-9.646,5.833-19.749,10.957-30.287,15.322c-21.943,9.089-44.872,14.572-68.368,16.383
	l-11.504-24.903c29.06-5.799,35.516-15.809,35.516-23.552c0-19.664-40.455-25.189-58.719-26.676l-9.311-20.155
	C268.594,169.916,291.186,164.233,312.877,155.248z M262.055,208.179c22.934,2.749,33.783,8.285,36.131,10.898
	c-1.987,2.245-10.023,6.535-26.711,9.493L262.055,208.179z M229.418,173.299l43.835,94.889c-0.392,0.002-0.782,0.014-1.173,0.014
	h-24.103l-43.772-94.754h17.173C224.064,173.449,226.743,173.388,229.418,173.299z M54.368,173.449
	c-5.343,5.01-15.658,9.739-29.606,11.982l-5.535-11.982H54.368z M15,244.279l35.702,77.284v6.683L15,250.962V244.279z
	 M65.702,347.609h169.979v7.26H65.702V347.609z M292.486,354.869v-7.26h152.996v7.26H292.486z"/>
<g>
</g>
<g>
</g>
<g>
</g>
<g>
</g>
<g>
</g>
<g>
</g>
<g>
</g>
<g>
</g>
<g>
</g>
<g>
</g>
<g>
</g>
<g>
</g>
<g>
</g>
<g>
</g>
<g>
</g>
</svg>
