<?xml version="1.0" encoding="iso-8859-1"?>
<!-- Generator: Adobe Illustrator 21.0.0, SVG Export Plug-In . SVG Version: 6.00 Build 0)  -->
<svg version="1.1" id="Capa_1" xmlns="http://www.w3.org/2000/svg" xmlns:xlink="http://www.w3.org/1999/xlink" x="0px" y="0px"
	 viewBox="-49 141 512 512" style="enable-background:new -49 141 512 512;" xml:space="preserve">
<g>
	<path style="fill:none;" d="M35.786,269.686H18.316v128.202c5.514-2.614,11.397-4.402,17.471-5.275V269.686z"/>
	<path style="fill:none;" d="M207,293.159c30.694-25.923,52.412-41.332,52.412-60.53c0-13.735-9.387-24.09-21.838-24.09
		c-16.42,0-22.108,19.628-22.163,19.825c-1.054,3.775-4.494,6.381-8.411,6.381s-7.357-2.607-8.411-6.381
		c-0.225-0.771-5.948-19.825-22.163-19.825c-12.451,0-21.838,10.356-21.838,24.09C154.588,251.577,175.297,266.383,207,293.159z"/>
	<path style="fill:none;" d="M395.684,269.686h-17.471v122.927c6.074,0.874,11.957,2.662,17.471,5.275V269.686z"/>
	<path style="fill:none;" d="M70.728,365.775c0-14.451,11.755-26.206,26.206-26.206h75.124c14.447,0,26.206,11.755,26.206,26.206
		v26.206h17.471v-26.206c0-14.451,11.755-26.206,26.206-26.206h75.124c14.447,0,26.206,11.755,26.206,26.206v26.206h17.471v-87.92
		c-13.205-1.703-25.93-7.242-37.231-16.287c-12.428-9.943-32.813-19.515-56.558-26.65c-11.001,15.338-30.942,30.144-54.269,50.137
		c-1.638,1.402-3.662,2.102-5.685,2.102s-4.051-0.703-5.685-2.102c-23.821-20.415-43.216-34.805-54.248-50.14
		c-23.757,7.132-44.148,16.71-56.583,26.657c-11.298,9.042-24.026,14.58-37.228,16.284v87.92h17.471V365.775z"/>
	<path style="fill:none;" d="M180.794,365.775c0-4.818-3.917-8.735-8.735-8.735H96.934c-4.818,0-8.735,3.917-8.735,8.735v26.206
		h92.595V365.775z"/>
	<path style="fill:none;" d="M317.066,357.04h-75.124c-4.818,0-8.735,3.917-8.735,8.735v26.206h92.595v-26.206
		C325.801,360.957,321.884,357.04,317.066,357.04z"/>
	<rect x="0.845" y="496.806" style="fill:none;" width="412.31" height="34.942"/>
	<rect x="378.214" y="549.218" style="fill:none;" width="34.942" height="17.471"/>
	<rect x="0.845" y="549.218" style="fill:none;" width="34.942" height="17.471"/>
	<path d="M413.155,410.36V260.951c0-4.825-3.911-8.735-8.735-8.735h-34.942c-4.825,0-8.735,3.911-8.735,8.735v25.438
		c-9.24-1.614-18.205-5.766-26.315-12.257c-17.406-13.922-41.981-23.36-59.418-28.81c1.253-4.132,1.874-8.34,1.874-12.693
		c0-23.306-17.266-41.561-39.309-41.561c-14.884,0-24.575,7.947-30.574,15.994c-5.999-8.046-15.69-15.994-30.574-15.994
		c-22.043,0-39.309,18.255-39.309,41.561c0,4.354,0.621,8.562,1.874,12.697c-17.433,5.447-42.012,14.888-59.422,28.81
		c-8.107,6.487-17.072,10.639-26.312,12.253v-25.438c0-4.825-3.911-8.735-8.735-8.735H9.58c-4.825,0-8.735,3.911-8.735,8.735V410.36
		c-11.141,11.387-17.471,26.749-17.471,42.769v122.295c0,4.825,3.911,8.735,8.735,8.735h52.412c4.825,0,8.735-3.911,8.735-8.735
		v-26.206h307.486v26.206c0,4.825,3.911,8.735,8.735,8.735h52.412c4.825,0,8.735-3.911,8.735-8.735V453.129
		C430.626,437.108,424.296,421.746,413.155,410.36z M378.214,269.686h17.471v128.202c-5.514-2.614-11.397-4.402-17.471-5.275
		V269.686z M176.426,208.538c16.215,0,21.937,19.054,22.163,19.825c1.054,3.775,4.494,6.381,8.411,6.381s7.357-2.607,8.411-6.381
		c0.054-0.197,5.743-19.825,22.163-19.825c12.451,0,21.838,10.356,21.838,24.09c0,19.198-21.719,34.607-52.412,60.53
		c-31.703-26.776-52.412-41.581-52.412-60.53C154.588,218.894,163.975,208.538,176.426,208.538z M53.257,304.061
		c13.202-1.703,25.93-7.242,37.228-16.284c12.435-9.947,32.826-19.525,56.583-26.657c11.032,15.335,30.427,29.725,54.248,50.14
		c1.634,1.399,3.662,2.102,5.685,2.102s4.047-0.7,5.685-2.102c23.326-19.993,43.267-34.798,54.269-50.137
		c23.745,7.135,44.13,16.706,56.558,26.65c11.301,9.045,24.026,14.584,37.231,16.287v87.92h-17.471v-26.206
		c0-14.451-11.759-26.206-26.206-26.206h-75.124c-14.451,0-26.206,11.755-26.206,26.206v26.206h-17.471v-26.206
		c0-14.451-11.759-26.206-26.206-26.206H96.934c-14.451,0-26.206,11.755-26.206,26.206v26.206H53.257V304.061z M96.934,444.394
		h255.073c4.825,0,8.735,3.911,8.735,8.735c0,4.825-3.911,8.735-8.735,8.735H96.934c-4.825,0-8.735-3.911-8.735-8.735
		C88.199,448.305,92.11,444.394,96.934,444.394z M88.199,391.981v-26.206c0-4.818,3.917-8.735,8.735-8.735h75.124
		c4.818,0,8.735,3.917,8.735,8.735v26.206H88.199z M233.206,391.981v-26.206c0-4.818,3.917-8.735,8.735-8.735h75.124
		c4.818,0,8.735,3.917,8.735,8.735v26.206H233.206z M61.993,444.394c4.822,0,8.735,3.913,8.735,8.735
		c0,4.822-3.913,8.735-8.735,8.735s-8.735-3.914-8.735-8.735C53.257,448.307,57.171,444.394,61.993,444.394z M18.316,269.686h17.471
		v122.927c-6.074,0.874-11.957,2.662-17.471,5.275V269.686z M413.155,531.748H0.845v-34.942h412.31V531.748z"/>
</g>
</svg>
