<?xml version="1.0" encoding="iso-8859-1"?>
<!-- Generator: Adobe Illustrator 21.1.0, SVG Export Plug-In . SVG Version: 6.00 Build 0)  -->
<svg version="1.1" id="Layer_1" xmlns="http://www.w3.org/2000/svg" xmlns:xlink="http://www.w3.org/1999/xlink" x="0px" y="0px"
	 viewBox="-49 141 512 512" style="enable-background:new -49 141 512 512;" xml:space="preserve">
<path d="M458.305,531.215c3.742-4.397,5.366-10.214,4.441-15.913l-39.385-242.905c-1.547-9.535-9.779-16.542-19.439-16.542H27.029
	l3.194,19.692l3.193,19.692l32.999,203.52l3.194,19.692l3.193,19.692h370.506C449.082,538.145,454.564,535.612,458.305,531.215z
	 M364.538,397.001c0,10.874-8.817,19.692-19.692,19.692H147.923c-10.875,0-19.692-8.818-19.692-19.692
	c0-10.877,8.817-19.692,19.692-19.692h196.923C355.722,377.309,364.538,386.125,364.538,397.001z"/>
<path d="M26.516,498.761L10.175,397.982l-9.975-61.519l-9.975-61.519l-38.971,240.356c-0.924,5.699,0.7,11.516,4.441,15.913
	c3.742,4.398,9.224,6.93,14.998,6.93h62.209l-3.194-19.692L26.516,498.761z"/>
</svg>
