<?xml version="1.0" encoding="UTF-8" standalone="no"?>
<svg
   xmlns:dc="http://purl.org/dc/elements/1.1/"
   xmlns:cc="http://creativecommons.org/ns#"
   xmlns:rdf="http://www.w3.org/1999/02/22-rdf-syntax-ns#"
   xmlns:svg="http://www.w3.org/2000/svg"
   xmlns="http://www.w3.org/2000/svg"
   viewBox="0 0 375.06668 616.45331"
   height="616.45331"
   width="375.06668"
   xml:space="preserve"
   id="svg2"
   version="1.1"><metadata
     id="metadata8"><rdf:RDF><cc:Work
         rdf:about=""><dc:format>image/svg+xml</dc:format><dc:type
           rdf:resource="http://purl.org/dc/dcmitype/StillImage" /></cc:Work></rdf:RDF></metadata><defs
     id="defs6" /><g
     transform="matrix(1.3333333,0,0,-1.3333333,0,616.45333)"
     id="g10"><g
       transform="scale(0.1)"
       id="g12"><path
         id="path14"
         style="fill:#231f20;fill-opacity:1;fill-rule:nonzero;stroke:none"
         d="m 1635.84,2268.19 c -47.7,-23.95 -52.8,-63.49 -10.33,-115.57 3.96,44.34 6.99,78.29 10.33,115.57 z m 961.71,-149.76 c 19.59,44.62 11.52,92.63 -21.88,127.61 -19.4,-47.97 -13.22,-89.39 21.88,-127.61 z M 2180.2,500.32 c -4.1,19.68 -14.95,40.68 -29.05,54.649 -10.34,10.261 -38.05,18.871 -45.76,12.75 -17.96,-14.239 -43.91,-42.59 -39.49,-56.821 23.06,-74.347 54.59,-146.058 86.72,-227.699 33.57,77.461 42.27,146.41 27.58,217.121 z m -214.34,2567.65 c 34.11,52.57 18.62,110.14 -12.2,159.85 -19.38,31.27 -48.16,56.71 -68.94,80.45 -28.2,-156.54 -56.62,-314.47 -85.14,-472.8 54.57,75.59 113.91,151.78 166.28,232.5 z m 561.78,-650.45 c 5.63,35.77 11.41,73.04 7.42,108.54 -13.08,116.12 -30.6,231.73 -46.46,347.94 -26.89,-117.94 -53.52,-234.35 -79.76,-350.85 -1.46,-6.45 -1.6,-14.44 0.87,-20.36 30.15,-72.28 60.92,-144.31 90.05,-212.93 9.92,44.42 21.26,85.67 27.88,127.66 z M 2105.07,678.809 c 21.9,49.113 59.68,71.023 111.06,78.179 15.54,2.172 36.34,12.352 42.9,24.992 25.81,49.75 53.95,100.051 68.2,153.61 24.58,92.41 42.84,186.88 57.36,281.46 13.77,89.63 41.49,172.83 91.54,247.83 27.83,41.69 30.08,81.47 1.41,121.6 -75.33,105.43 -151.36,210.37 -227.61,315.15 -16.57,22.78 -39.34,41.92 -52.1,66.46 -31.79,61.23 -78.81,72.85 -142.47,59.48 -30.23,-6.35 -39.47,-16.63 -39.54,-45.67 -0.4,-174.2 -22.23,-346.34 -59.49,-516.08 -16.29,-74.19 -44.16,-145.84 -36.69,-223.72 15.88,-165.64 29.73,-331.51 48.68,-496.78 7.24,-63.07 31.96,-122.191 78.58,-177.808 21.95,41.578 42.2,75.488 58.17,111.297 z M 2429.23,287.48 c -4.33,-18.308 -2.65,-40.519 3.65,-58.359 14.12,-40.019 0.79,-74.211 -22.61,-102.262 -23.4,-28.0387 -57.53,-25.757 -89.64,-10.48 -18.56,8.82 -36.91,18.07 -46.22,22.641 -25.62,-26.18 -43.4,-60.8208 -66.07,-64.3794 -62.02,-9.75 -126.1,-8.082 -189.36,-7.6992 -47.42,0.2891 -73.93,24.6172 -78.97,74.8786 -3.78,37.629 -15.11,74.602 -24.33,111.551 -3.4,13.668 -10.39,26.438 -15.75,39.629 -3.07,-0.621 -6.16,-1.219 -9.25,-1.828 -9.36,-48.18 -18.72,-96.383 -28.08,-144.563 -5.59,-0.121 -11.18,-0.238 -16.77,-0.359 -1.89,15.691 -6.4,31.578 -5.25,47.051 5.71,77.148 -0.32,151.98 -32.47,223.847 -5.17,11.543 -1.7,28.993 2.39,42.293 25.85,84.047 50.85,167.071 9.62,254.368 -24.07,50.953 -40.72,105.402 -64.54,156.472 -77.82,166.749 -95.76,340.039 -67.41,520.889 17.24,109.96 33.14,220.61 12.6,332.72 -14.23,77.69 -27.63,155.81 -35.28,234.32 -4.78,49.01 -13.82,85.86 -69.74,87.96 -6.07,17.78 -16.35,31.85 -29.46,42.35 -22.37,17.94 -59.47,29.04 -67.38,51.21 -19.11,53.62 -28.68,110.17 -2.44,168.68 22.87,50.99 40.31,105.79 50.78,160.7 25.08,131.53 36.16,266.24 68.52,395.75 44.3,177.33 91.89,352.42 61.56,537.42 -2.57,15.74 -4.48,38 -14.91,44.99 -71.9,48.21 -77.54,119.02 -52.49,187.23 38.43,104.68 51.16,213.92 75.19,321.13 2.98,13.3 5.49,26.69 8.22,40.04 -2.61,1.84 -5.2,3.67 -7.81,5.52 -10.78,-15.73 -21.57,-31.45 -32.36,-47.17 -6.06,9.71 -5.99,13.99 -4,16.99 112.02,169 181.57,362.64 312.58,521.72 56.85,69.04 108.77,121.43 203.12,129.29 68.27,5.68 122.33,-4.68 165.7,-58.76 105.36,-131.38 165.86,-279.2 177.13,-448.81 3.31,-49.86 19.51,-104.15 46.27,-145.84 35.17,-54.79 85.41,-100.32 131.5,-147.54 32.76,-33.57 57.07,-69.13 58.7,-117.8 4.98,-148.82 -5.58,-295.91 -40.02,-441.37 -13.59,-57.41 -22.84,-116.49 -27.23,-175.32 -12.54,-168.71 -23.08,-337.62 -31.34,-506.6 -3.62,-74.03 -15.98,-153.24 4.32,-221.57 33.78,-113.7 38.07,-222.99 13.77,-336.63 -4.52,-21.18 -7.95,-46.76 -0.32,-65.65 40.64,-100.67 82.55,-201.01 128.92,-299.16 28.54,-60.44 28.42,-113.83 -5.02,-172.33 -33.43,-58.48 -61.77,-120.26 -87.63,-182.54 -29.12,-70.14 -49.31,-144.1 -80.02,-213.46 -43.37,-97.96 -105.08,-189.37 -136.74,-290.55 -44.83,-143.219 -69.42,-292.781 -103.99,-445.481 38.16,-10.757 59.61,-25.937 50.36,-65.129" /><path
         id="path16"
         style="fill:#231f20;fill-opacity:1;fill-rule:nonzero;stroke:none"
         d="m 1153.76,3195.63 c -21.53,-176.72 67.03,-317.54 151.37,-459.79 40.94,-69.06 82.35,-137.87 121.59,-207.87 9.16,-16.35 13.13,-36.8 14.73,-55.76 6.29,-74.75 10.69,-149.65 15.84,-225.02 19.95,-3.33 37.69,-6.28 61.47,-10.25 -23.53,-14.95 -41.92,-26.64 -60.32,-38.33 2.21,-4.32 4.42,-8.64 6.62,-12.97 23.12,3.37 46.24,6.73 74.46,10.84 -10.13,-26.33 -18.74,-48.74 -30.45,-79.19 18.34,2.52 34.03,-0.06 39.9,6.23 49.33,52.9 100.84,105.78 71.13,188.29 -7.11,19.75 -10.32,40.85 -17.15,60.71 -55.67,162.03 -111.8,323.9 -167.7,485.85 -4.13,11.97 -6.28,24.74 -11.52,36.17 -114.13,248.58 -120.83,511.08 -104.5,776.7 1.63,26.6 1.77,53.47 0.02,80.05 -4.23,64.53 -57.63,115.75 -120.92,129.71 -70.45,15.55 -139.89,36.7 -208.31,59.63 -43.364,14.53 -59.832,81.89 -39.352,144.65 13.512,41.4 29.535,82.01 42.734,123.5 34.488,108.43 14.568,214.74 -19.621,318.54 -20.398,61.91 -69.004,94.36 -136.543,95.98 -85.695,2.05 -159.777,-26.18 -206.285,-97.67 -41.84,-64.32 -99.707,-84.59 -170.371,-83.15 -41.031,0.84 -81.965,6.33 -122.941,9.72 -0.813,-3.59 -1.629,-7.17 -2.442,-10.75 63.938,-12.67 127.879,-25.33 195.801,-38.79 -53.137,-46.98 -115.469,-61.19 -183.937,-51.73 -64.653,8.93 -128.821,21.2 -193.782,29.25 99.742,-41.78 202.637,-69.16 316.012,-64.65 -62.379,-92.22 -169.84,-82.75 -254.883,-122.43 84.461,12.72 168.93,25.44 267.832,40.33 -32.906,-28.74 -55.308,-54.35 -83.109,-71.39 -70.129,-42.99 -142.977,-81.65 -214.188,-122.95 -59.086,-34.28 -112.1755,-75.35 -146.1637,-137.35 94.8637,101.44 225.8207,139.21 348.9097,191.65 -76.097,-50 -152.199,-100 -228.296,-150 1.089,-1.32 2.179,-2.64 3.265,-3.96 65.719,30.28 131.438,60.56 197.156,90.84 3.051,-4.05 6.106,-8.11 9.161,-12.16 C 335.039,3976 301.598,3933.49 267.074,3891.86 167.711,3772.02 67.25,3652.88 20.1211,3501.09 12.2188,3475.63 6.60547,3449.46 0.621094,3423.47 c -1.457032,-6.32 -0.21875,-13.24 2.382816,-20.59 38.97269,152.51 127.37909,274.37 239.41809,388.43 -12.82,-72.93 -29.266,-140.01 -35.242,-207.98 -5.926,-67.34 -1.301,-135.59 -1.301,-177.02 22.426,103.95 50.254,232.94 78.082,361.92 4.312,-0.8 8.629,-1.61 12.937,-2.42 0,-81.66 0,-163.32 0,-244.98 2.567,-0.09 5.129,-0.19 7.692,-0.28 4.758,49.48 9.508,98.97 14.301,148.85 30.261,-53.87 29.621,-239.9 1.511,-294.87 -48.566,-94.96 -132.168,-150.54 -225.652,-195.75 2.1797,-3.43 4.3516,-6.87 6.531,-10.3 74.961,40.81 149.922,81.63 235.805,128.39 -13.195,-67.66 -25.43,-130.45 -37.316,-191.41 0.046,0.02 6.304,2.82 20.328,9.08 -6.11,-25.68 -6.93,-48.57 -16.641,-66.87 -69.047,-130.07 -101.102,-270.88 -126.93,-413.62 -16.8,-92.87 -53.632,-176.46 -109.0934,-253.75 -56.7109,-79.02 -47.9766,-197.41 20.5,-272.22 6.4336,20.19 12.0704,35.87 16.4184,51.91 12.086,44.54 21.648,89.87 36.425,133.51 5.411,15.97 22.672,28.03 34.528,41.88 4.093,-1.83 8.195,-3.66 12.293,-5.49 0,-33.91 0,-67.83 0,-101.75 6.148,-1.17 12.289,-2.34 18.437,-3.51 5.91,17.85 14.25,35.3 17.293,53.6 12.539,75.44 42.121,147.59 37.301,226.82 -1.606,26.4 19.934,54.55 32.187,81.33 58.508,127.84 119.723,254.54 174.786,383.79 15.246,35.78 14.511,78.79 17.851,118.75 5.574,66.58 8.512,133.37 12.567,200.07 5.906,0.46 11.82,0.93 17.726,1.38 21.817,-96.26 47.039,-191.98 63.195,-289.17 4.336,-26.08 -12.691,-61.32 -30.527,-84.38 -134.945,-174.47 -202.879,-372.84 -215.379,-589.36 -11.078,-191.97 -14.683,-384.37 -21.39,-576.57 -0.286,-8.17 1.421,-16.4 2.187,-24.47 71.504,2.21 75.82,-0.79 78.156,-69.49 4.43,-130.47 -6.148,-258.52 -25.883,-388.91 -22.632,-149.48 -21.32,-307.04 -0.597,-457.09 22.476,-162.711 28.5,-324.121 28.344,-486.981 -0.047,-53.668 -0.004,-107.328 -0.004,-161 4.16,-0.508 8.32,-1.019 12.48,-1.527 4.551,23.937 9.102,47.887 15.75,82.879 C 431.77,190.07 437.395,146.828 447.5,104.621 464.762,32.5391 517.676,-3.66016 591.133,0.289063 619.918,1.83984 635.156,15.4492 632.66,41.9102 c -2.992,31.7812 -10.234,63.3198 -17.605,94.5118 -11.563,48.879 -30.477,96.738 -36.164,146.18 -13.618,118.359 -33.84,237.968 -28.125,355.98 6.351,131.066 40.078,260.699 58.644,391.398 6.453,45.46 2.242,92.31 4.684,138.44 3.761,71.1 5.703,142.55 14.504,213.1 12.664,101.54 31.871,202.26 45.754,303.67 3.144,22.94 9.972,30.26 32.753,38.77 66.161,24.75 128.106,20.76 195.301,1.48 34.86,-10 77.629,2.43 115.864,9.67 28.73,5.44 55.93,18.75 86.39,29.46 18.65,-55.15 31.74,-108.62 54.46,-157.77 39.38,-85.23 76.95,-172.9 129.44,-250.21 72.72,-107.09 117.22,-223.76 156.05,-344.61 49.05,-152.601 102.81,-303.742 150.75,-456.66 25.5,-81.371 44.12,-164.922 63.7,-247.98 12.43,-52.758 20.23,-106.57 31.41,-159.649 9.14,-43.382 39.79,-68.0191 84.82,-68.1519 27.02,-0.0782 54.27,1.3906 81.04,4.9218 46.14,6.0977 67.78,62.4491 44.82,102.0271 -35.97,62.043 -78.75,123.321 -98.83,190.684 -54.39,182.469 -102.52,367.41 -98.28,560.25 3.62,164.388 -51.8,308.348 -151.01,437.828 -89.24,116.47 -113.05,255.53 -141.99,393.23 -34.9,166.06 -68.73,332.45 -109.1,497.24 -22.63,92.38 -66.12,180.14 -84.87,272.99 -25.48,126.21 -37.88,255.11 -52.85,383.2 -10.54,90.2 -16.05,180.96 -23.8,271.48 4.45,0.74 8.9,1.49 13.34,2.24" /></g></g></svg>