<svg height="512pt" viewBox="-62 0 512 512" width="512pt" xmlns="http://www.w3.org/2000/svg"><path d="m194.238281 211c8.277344 0 15-6.722656 15-15s-6.722656-15-15-15c-8.273437 0-15 6.722656-15 15s6.726563 15 15 15zm0 0"/><path d="m194.238281 0c-102.457031 0-186.527343 80.484375-194.238281 181h90.757812c7.355469-50.75 50.726563-90 103.480469-90 52.757813 0 96.128907 39.25 103.484375 90h90.757813c-7.710938-100.515625-91.785157-181-194.242188-181zm0 0"/><path d="m297.722656 211c-7.355468 50.75-50.726562 90-103.484375 90-52.753906 0-96.125-39.25-103.480469-90h-90.757812c7.710938 100.515625 91.78125 181 194.238281 181s186.53125-80.484375 194.242188-181zm0 0"/><path d="m194.238281 271c41.355469 0 75-33.648438 75-75s-33.644531-75-75-75c-41.351562 0-75 33.648438-75 75s33.648438 75 75 75zm0-120c24.816407 0 45 20.1875 45 45s-20.183593 45-45 45c-24.8125 0-45-20.1875-45-45s20.1875-45 45-45zm0 0"/><path d="m194.238281 422c-15.382812 0-30.414062-1.675781-45-4.691406v19.691406c0 8.277344-6.722656 15-15 15-3.019531 0-48.019531 0-45 0-33.136719 0-60 26.863281-60 60h330c0-33.136719-26.859375-60-60-60-3.019531 0-48.019531 0-45 0-8.273437 0-15-6.722656-15-15v-19.691406c-14.582031 3.015625-29.617187 4.691406-45 4.691406zm0 0"/></svg>